<?xml version="1.0" encoding="UTF-8"?>
<svg version="1.1" xmlns="http://www.w3.org/2000/svg" width="1536" height="1024">
<path d="M0 0 C506.88 0 1013.76 0 1536 0 C1536 337.92 1536 675.84 1536 1024 C1029.12 1024 522.24 1024 0 1024 C0 686.08 0 348.16 0 0 Z " fill="#FDFCFC" transform="translate(0,0)"/>
<path d="M0 0 C4.07538551 1.6980773 7.20150373 4.51624291 10.5 7.375 C11.11512451 7.90665771 11.73024902 8.43831543 12.36401367 8.98608398 C39.39717551 32.61097378 64.34080207 65.54152535 67.27929688 102.51416016 C67.9630661 117.0404148 67.74372066 131.16726969 63 145 C62.64591064 146.0823291 62.64591064 146.0823291 62.28466797 147.18652344 C56.91797278 163.30390976 48.77976556 176.75436801 37 189 C35.86867269 190.32796886 34.74339118 191.6611184 33.625 193 C26.89668171 200.70500966 18.8947672 207.16137202 10.96484375 213.578125 C5.2148557 218.27508493 -0.42094924 223.10163369 -6 228 C-6.70253906 228.61488281 -7.40507813 229.22976563 -8.12890625 229.86328125 C-20.60918772 241.53277878 -29.64449865 258.94532842 -31 276 C-31.08121094 276.76828125 -31.16242188 277.5365625 -31.24609375 278.328125 C-32.6112599 302.6529037 -18.4455916 325.0518668 -3.1640625 342.52734375 C4.73406227 351.32891571 13.20434575 359.66607922 22.1496582 367.39697266 C25.60845699 370.39347256 28.96162781 373.50686294 32.3359375 376.59765625 C34.55935976 378.60264847 36.82284045 380.52514834 39.125 382.4375 C50.9597134 392.79589946 61.85787376 408.24774846 63.19091797 424.29882812 C64.07416158 442.8139598 59.66939274 457.31466083 48 472 C47.03126953 473.28583984 47.03126953 473.28583984 46.04296875 474.59765625 C39.84512089 481.8857565 29.99428112 487.00190629 21 490 C-6.22908573 492.11500489 -32.34474368 485.41203315 -56 472 C-56.66338379 471.62504395 -57.32676758 471.25008789 -58.01025391 470.86376953 C-68.29912791 464.95240641 -77.32022893 458.07244015 -86 450 C-86.5475293 449.49629883 -87.09505859 448.99259766 -87.65917969 448.47363281 C-101.79750143 435.34219452 -112.92437714 419.98568356 -122 403 C-122.48243164 402.10112061 -122.48243164 402.10112061 -122.97460938 401.18408203 C-143.67773877 361.79737158 -147.53659119 314.79216627 -134.9375 272.3125 C-121.41095474 229.3638505 -93.95220047 193.9282787 -60 165 C-59.12903687 164.25435791 -59.12903687 164.25435791 -58.24047852 163.49365234 C-57.12047228 162.53650046 -55.99947981 161.58050125 -54.87744141 160.62573242 C-48.96673441 155.595398 -43.16223595 150.47679832 -37.4453125 145.2265625 C-35.32727807 143.2980008 -33.17770283 141.42280484 -31 139.5625 C-6.73910357 118.31568642 12.7554566 90.20939592 15.2890625 57.23828125 C15.75052236 37.16477731 8.8528966 17.7685797 0 0 Z " fill="#FA5903" transform="translate(759,125)"/>
<path d="M0 0 C2.12499181 2.67323064 3.67394893 5.20725802 5.015625 8.34375 C5.556427 9.58620483 5.556427 9.58620483 6.1081543 10.85375977 C6.48496338 11.72701904 6.86177246 12.60027832 7.25 13.5 C10.28745967 20.39971742 13.47733823 26.94084855 17.40625 33.37890625 C18.9269605 35.87987867 20.31697923 38.41433728 21.6875 41 C27.98483978 52.62842108 35.02937912 63.86321216 42.02416992 75.08081055 C62.68689066 108.23882109 81.8233835 145.42500066 82.23828125 185.42578125 C82.24798447 186.20700348 82.25768768 186.98822571 82.26768494 187.79312134 C82.292466 190.29963377 82.30518831 192.80587758 82.3125 195.3125 C82.31642761 196.59364182 82.31642761 196.59364182 82.32043457 197.90066528 C82.32456201 210.43849866 81.55639002 221.9181872 78 234 C77.72285156 235.22589844 77.44570313 236.45179688 77.16015625 237.71484375 C70.64145772 265.86240377 54.66386739 291.21732636 35 312 C34.23171875 312.82113281 33.4634375 313.64226562 32.671875 314.48828125 C18.50783322 329.17776329 1.36331906 339.36895025 -17 348 C-17.63583008 348.30728027 -18.27166016 348.61456055 -18.92675781 348.93115234 C-23.64968026 351.11677325 -23.64968026 351.11677325 -27 350 C-26.46632813 349.59910156 -25.93265625 349.19820312 -25.3828125 348.78515625 C-22.89595162 346.88774163 -20.44331015 344.95319593 -18 343 C-17.18402344 342.34773438 -16.36804688 341.69546875 -15.52734375 341.0234375 C-4.66761832 331.83311519 2.90717664 320.24134073 8 307 C8.4125 305.948125 8.825 304.89625 9.25 303.8125 C14.65840394 287.88775508 13.77947387 269.45897889 6.38500977 254.39477539 C2.47661535 246.82078506 -2.30841468 240.35544089 -8 234 C-8.72058594 233.17113281 -9.44117188 232.34226562 -10.18359375 231.48828125 C-14.17547081 226.95561515 -18.33315828 222.62295038 -22.625 218.375 C-26.96449748 214.07171529 -31.09108142 209.69619492 -35 205 C-35.62261719 204.26652344 -36.24523437 203.53304687 -36.88671875 202.77734375 C-52.07645068 184.42432776 -62.83564845 164.54723393 -61.21875 140.19775391 C-59.6558185 124.49517654 -49.59203904 112.50271088 -40.0078125 100.734375 C-27.20012185 84.94228913 -15.46413672 67.37195404 -9 48 C-8.77763672 47.33436035 -8.55527344 46.6687207 -8.32617188 45.98291016 C-3.38577989 30.93301237 -0.72697641 15.81800401 0 0 Z " fill="#FD9004" transform="translate(851,255)"/>
<path d="M0 0 C0.66 0 1.32 0 2 0 C1.92894043 0.66008057 1.85788086 1.32016113 1.78466797 2.00024414 C1.46755269 5.01972158 1.17112825 8.04089508 0.875 11.0625 C0.76285156 12.10083984 0.65070312 13.13917969 0.53515625 14.20898438 C-0.01731903 20.00997478 -0.07961217 24.4427755 2 30 C2.44279297 31.48113281 2.44279297 31.48113281 2.89453125 32.9921875 C9.52131621 53.80311219 24.8026127 68.32715233 39.60546875 83.70703125 C55.01375882 100.1818332 65.608008 119.27191971 71.02734375 141.14453125 C71.89754521 144.87032374 71.89754521 144.87032374 73.04418945 147.86645508 C74.02539399 151.08325209 74.25811596 153.64047294 74.265625 156.9921875 C74.26949219 158.66861328 74.26949219 158.66861328 74.2734375 160.37890625 C74.26570312 161.53261719 74.25796875 162.68632812 74.25 163.875 C74.26160156 165.59396484 74.26160156 165.59396484 74.2734375 167.34765625 C74.25904468 173.60133601 73.83752458 179.01944246 72 185 C71.5359375 186.7015625 71.5359375 186.7015625 71.0625 188.4375 C68.65541922 196.50830026 65.71108354 204.16075887 62.3046875 211.86328125 C61.30092307 214.27652328 60.51586571 216.45212669 60 219 C63.26104948 217.4471193 66.24866231 215.83263113 69.25 213.8125 C72 212 72 212 74 212 C74.33 210.68 74.66 209.36 75 208 C75.66 208 76.32 208 77 208 C77 207.01 77 206.02 77 205 C77.66 205 78.32 205 79 205 C79.17619873 204.11078857 79.17619873 204.11078857 79.35595703 203.20361328 C80.19684739 200.32648045 81.89671172 198.2927055 83.66308594 195.90917969 C85.82660501 192.81956699 87.46861308 189.50624654 89.125 186.125 C89.47046875 185.42826172 89.8159375 184.73152344 90.171875 184.01367188 C92.56083671 179.11265311 94.49959422 174.25142022 96 169 C96.66 169 97.32 169 98 169 C98.33 166.03 98.66 163.06 99 160 C99.66 160 100.32 160 101 160 C101.66 156.7 102.32 153.4 103 150 C106.41955314 163.67821257 92.82731348 185.39563164 86.10473633 196.99755859 C67.80285009 227.42704182 41.94080802 248.98731617 10 264 C9.36416992 264.30728027 8.72833984 264.61456055 8.07324219 264.93115234 C3.35031974 267.11677325 3.35031974 267.11677325 0 266 C0.53367187 265.59910156 1.06734375 265.19820312 1.6171875 264.78515625 C4.10404838 262.88774163 6.55668985 260.95319593 9 259 C9.81597656 258.34773438 10.63195312 257.69546875 11.47265625 257.0234375 C22.33238168 247.83311519 29.90717664 236.24134073 35 223 C35.4125 221.948125 35.825 220.89625 36.25 219.8125 C41.65840394 203.88775508 40.77947387 185.45897889 33.38500977 170.39477539 C29.47661535 162.82078506 24.69158532 156.35544089 19 150 C18.27941406 149.17113281 17.55882812 148.34226562 16.81640625 147.48828125 C12.82452919 142.95561515 8.66684172 138.62295038 4.375 134.375 C0.03550252 130.07171529 -4.09108142 125.69619492 -8 121 C-8.62261719 120.26652344 -9.24523437 119.53304687 -9.88671875 118.77734375 C-25.07645068 100.42432776 -35.83564845 80.54723393 -34.21875 56.19775391 C-32.65888869 40.52602235 -22.60049924 28.40552439 -12.984375 16.67578125 C-9.39257801 12.2879957 -6.01686873 7.75252531 -2.64453125 3.1953125 C-1 1 -1 1 0 0 Z " fill="#FD5B03" transform="translate(824,339)"/>
<path d="M0 0 C26 0 26 0 31.25 4.4375 C32.15928507 5.99800253 33.06492548 7.56178382 33.90771484 9.15917969 C36.16231801 12.95884618 39.20739444 16.20657659 42.0625 19.5625 C43.2790138 21.03270202 44.49263527 22.50530285 45.703125 23.98046875 C46.55874023 25.02146729 46.55874023 25.02146729 47.43164062 26.08349609 C50.03852255 29.26905387 52.60517184 32.48600019 55.16796875 35.70703125 C59.85871551 41.57796589 64.6498906 47.36814412 69.4375 53.16015625 C70.66677144 54.64835097 71.89593682 56.13663329 73.125 57.625 C73.73069824 58.3579126 74.33639648 59.0908252 74.96044922 59.84594727 C78.66074365 64.33568517 82.28557959 68.86727161 85.765625 73.53125 C86.95377128 75.14229984 86.95377128 75.14229984 89 76 C89 50.92 89 25.84 89 0 C97.91 0 106.82 0 116 0 C116 40.59 116 81.18 116 123 C91 123 91 123 84.625 117.375 C83.18408203 115.45849609 83.18408203 115.45849609 82.2578125 113.7734375 C79.98554276 109.89556395 77.32152507 106.48990996 74.5 103 C73.58207464 101.82389797 72.66540412 100.64681547 71.75 99.46875 C69.08237521 96.07359118 66.30818421 92.77920552 63.5 89.5 C59.29327733 84.58371862 55.25118594 79.56382066 51.27880859 74.45678711 C47.10428513 69.09940774 42.8203026 63.83490395 38.50244141 58.5925293 C35.96457143 55.49400413 33.53124992 52.37775454 31.2421875 49.08984375 C29.35022227 45.98292285 29.35022227 45.98292285 27 45 C27 70.74 27 96.48 27 123 C18.09 123 9.18 123 0 123 C0 82.41 0 41.82 0 0 Z " fill="#0F0C0C" transform="translate(645,651)"/>
<path d="M0 0 C0.99 1.485 0.99 1.485 2 3 C0.89591797 4.30324219 0.89591797 4.30324219 -0.23046875 5.6328125 C-1.21615806 6.79686464 -2.20183446 7.96092773 -3.1875 9.125 C-3.91163086 9.97964844 -3.91163086 9.97964844 -4.65039062 10.8515625 C-7.78434695 14.55341695 -10.899374 18.27017932 -14 22 C-14.7734375 21.52949219 -15.546875 21.05898438 -16.34375 20.57421875 C-31.09053112 11.75900182 -45.04580061 9.09158377 -62.11328125 11.42578125 C-70.82824217 13.6913931 -78.75172681 19.32538361 -83.75 26.80859375 C-88.0421784 34.33331901 -89.35909687 41.03985695 -89.4375 49.625 C-89.45272705 50.80606323 -89.45272705 50.80606323 -89.46826172 52.01098633 C-89.32856687 61.44235646 -86.21483524 69.86010542 -80 77 C-72.60658867 83.39028517 -64.79943562 87.15522107 -55 88 C-54.29617188 88.06445312 -53.59234375 88.12890625 -52.8671875 88.1953125 C-42.73061935 88.6971228 -32.96208545 85.48104273 -24 81 C-23.67 75.06 -23.34 69.12 -23 63 C-33.23 63 -43.46 63 -54 63 C-54 55.41 -54 47.82 -54 40 C-34.86 40 -15.72 40 4 40 C4.185625 49.11625 4.37125 58.2325 4.5625 67.625 C4.68540405 71.92845459 4.68540405 71.92845459 4.81079102 76.31884766 C4.8370837 78.60054742 4.86001601 80.88228945 4.87890625 83.1640625 C4.92494995 84.34250732 4.97099365 85.52095215 5.01843262 86.73510742 C5.02626203 94.91423579 5.02626203 94.91423579 2.04855347 98.06459045 C-0.24448675 99.61498229 -2.48912736 100.84306585 -5 102 C-6.051875 102.59167969 -7.10375 103.18335938 -8.1875 103.79296875 C-22.30542252 110.79310533 -34.78141688 113.34696518 -50.5625 113.25 C-51.82513672 113.25773438 -53.08777344 113.26546875 -54.38867188 113.2734375 C-71.69557389 113.23728731 -88.23672515 107.59955016 -101.28125 95.81640625 C-114.16633982 82.19920906 -120.64125655 65.59307019 -120.3046875 46.98828125 C-118.94101218 29.13812102 -111.67266437 12.83748511 -98.3671875 0.78125 C-71.20126478 -22.37453938 -28.31498788 -19.3627528 0 0 Z " fill="#110D0E" transform="translate(587,663)"/>
<path d="M0 0 C30.69 0 61.38 0 93 0 C93 8.25 93 16.5 93 25 C71.55 25 50.1 25 28 25 C28 33.58 28 42.16 28 51 C46.48 51 64.96 51 84 51 C84 58.59 84 66.18 84 74 C65.52 74 47.04 74 28 74 C28 82.58 28 91.16 28 100 C50.44 100 72.88 100 96 100 C96 107.92 96 115.84 96 124 C64.32 124 32.64 124 0 124 C0 83.08 0 42.16 0 0 Z " fill="#110E0E" transform="translate(1048,650)"/>
<path d="M0 0 C35.97 0 71.94 0 109 0 C109 7.92 109 15.84 109 24 C95.47 24 81.94 24 68 24 C68 56.67 68 89.34 68 123 C59.09 123 50.18 123 41 123 C41 90.33 41 57.66 41 24 C27.47 24 13.94 24 0 24 C0 16.08 0 8.16 0 0 Z " fill="#100D0D" transform="translate(894,651)"/>
<path d="M0 0 C9.24 0 18.48 0 28 0 C28 40.59 28 81.18 28 123 C18.76 123 9.52 123 0 123 C0 82.41 0 41.82 0 0 Z " fill="#120E0F" transform="translate(821,651)"/>
<path d="M0 0 C0 33.99 0 67.98 0 103 C-8.91 103 -17.82 103 -27 103 C-27.15825605 92.54257908 -27.28663104 82.08595555 -27.3626852 71.62760735 C-27.39919086 66.77114184 -27.44869121 61.9155392 -27.52807617 57.05957031 C-27.60423308 52.37162955 -27.64601036 47.6845177 -27.6641407 42.99600601 C-27.67705764 41.20895463 -27.70228289 39.42194776 -27.7401104 37.63525009 C-28.02456314 23.64096163 -28.02456314 23.64096163 -25.48239136 19.56936646 C-22.96306923 17.3391017 -20.64597634 16.24173328 -17.515625 15.0703125 C-13.43245212 13.33306193 -10.77947937 10.04903959 -7.75 6.875 C-6.49685536 5.57873095 -5.24175629 4.28434742 -3.984375 2.9921875 C-3.43491211 2.41839355 -2.88544922 1.84459961 -2.31933594 1.25341797 C-1 0 -1 0 0 0 Z " fill="#100C0D" transform="translate(423,671)"/>
<path d="M0 0 C4.79964964 3.86079601 7.94926722 8.35594818 9.5625 14.3125 C9.624375 15.3025 9.68625 16.2925 9.75 17.3125 C9.9046875 19.1378125 9.9046875 19.1378125 10.0625 21 C9.92607638 28.12131321 7.38148526 35.04457178 2.5 40.25 C1.28259785 41.30949643 0.03275127 42.33313803 -1.25 43.3125 C-1.78882813 43.745625 -2.32765625 44.17875 -2.8828125 44.625 C-9.53525955 48.92075056 -18.66811006 48.20875548 -26.25 47.3125 C-29.47249038 46.50448683 -31.67186308 45.384878 -34.25 43.3125 C-34.87132812 42.838125 -35.49265625 42.36375 -36.1328125 41.875 C-41.8454792 36.90330681 -44.4012087 30.5788642 -45.59375 23.1796875 C-45.93014854 16.25548414 -43.90276518 8.96603328 -39.625 3.5 C-28.88302008 -7.83131547 -12.58500861 -8.66547497 0 0 Z " fill="#FC570E" transform="translate(1004.25,814.6875)"/>
<path d="M0 0 C29.8 0 29.8 0 40.5625 6.5625 C45.58308143 11.58308143 48.28997855 17.44177262 48.5 24.5625 C48.04160115 32.90770991 45.79318743 39.12754236 40.0390625 45.2734375 C28.6898257 54.88332767 14.1543656 52 0 52 C0 34.84 0 17.68 0 0 Z " fill="#FB550D" transform="translate(800,810)"/>
<path d="M0 0 C3.63 0 7.26 0 11 0 C11.00410889 1.02883301 11.00821777 2.05766602 11.01245117 3.11767578 C11.03430788 6.9536269 11.08866353 10.78856176 11.15258789 14.62402344 C11.17571129 16.28049949 11.19015032 17.93712138 11.19555664 19.59375 C11.20488843 21.98268921 11.24596464 24.36935279 11.29296875 26.7578125 C11.2890361 27.49242706 11.28510345 28.22704163 11.28105164 28.98391724 C11.44254801 34.7412359 13.03411553 37.117282 17 41 C21.30861902 42.74592736 25.13937119 42.31295593 29.4375 40.75 C32.20936775 39.09141655 32.20936775 39.09141655 34 36 C34.24073135 33.24781023 34.37282688 30.58782534 34.4140625 27.83203125 C34.43342865 27.03721848 34.4527948 26.2424057 34.4727478 25.42350769 C34.53249442 22.88661405 34.57890883 20.34967491 34.625 17.8125 C34.66318435 16.09177716 34.70223635 14.37107335 34.7421875 12.65039062 C34.83819179 8.43374835 34.92224076 4.2170166 35 0 C38.63 0 42.26 0 46 0 C46.09945752 5.12282759 46.17174409 10.24508354 46.21972656 15.36865234 C46.23974522 17.10866089 46.26696886 18.84860299 46.30175781 20.58837891 C46.35070952 23.10075346 46.37306587 25.61223275 46.390625 28.125 C46.41127014 28.89303955 46.43191528 29.6610791 46.45318604 30.45239258 C46.45548677 36.08889571 45.07430164 40.26177131 42 45 C39.9296875 47.05859375 39.9296875 47.05859375 37.875 48.4375 C37.19179688 48.91058594 36.50859375 49.38367188 35.8046875 49.87109375 C29.96088534 53.52663233 21.71495238 52.74396798 15 52 C9.93343553 50.4614621 6.95849303 48.13053025 3.5625 44.125 C0.55899601 38.11799202 -0.29233052 32.52918373 -0.1953125 25.87890625 C-0.1924826 25.13414536 -0.18965271 24.38938446 -0.18673706 23.62205505 C-0.17563917 21.26869899 -0.1505551 18.91573891 -0.125 16.5625 C-0.11495672 14.95638575 -0.10583324 13.35026546 -0.09765625 11.74414062 C-0.07573407 7.82927704 -0.04127761 3.9147054 0 0 Z " fill="#FC5710" transform="translate(699,810)"/>
<path d="M0 0 C0.99 0.99 1.98 1.98 3 3 C1.35 5.31 -0.3 7.62 -2 10 C-7.75 8.125 -7.75 8.125 -10 7 C-11.9972542 6.87800862 -13.99905981 6.82452488 -16 6.8125 C-17.0725 6.79832031 -18.145 6.78414062 -19.25 6.76953125 C-22.14453096 6.71414214 -22.14453096 6.71414214 -24 9 C-24.31241113 11.53084814 -24.31241113 11.53084814 -23 14 C-19.51107307 15.64931091 -16.16125554 16.67713172 -12.45703125 17.70703125 C-5.67339326 19.62615425 0.11809152 21.7334906 4 28 C4.86289599 33.14628062 4.59733089 37.68587203 2.4375 42.4375 C-1.48420909 46.56032237 -5.45342822 49.15052825 -11.15625 49.49609375 C-12.6042978 49.49740302 -14.05250795 49.47763618 -15.5 49.4375 C-16.22058594 49.44458984 -16.94117188 49.45167969 -17.68359375 49.45898438 C-25.34784713 49.36889821 -30.83485167 46.36071467 -37 42 C-35.62845496 39.04590299 -34.01136276 36.55991624 -32 34 C-31.42507813 34.29519531 -30.85015625 34.59039063 -30.2578125 34.89453125 C-23.15192851 38.37370974 -16.86221021 39.97669935 -9 38 C-8.34 37.34 -7.68 36.68 -7 36 C-7.32041397 33.39719432 -7.32041397 33.39719432 -8 31 C-8.60473145 30.81937012 -9.20946289 30.63874023 -9.83251953 30.45263672 C-12.60302862 29.61294384 -15.36364897 28.74431421 -18.125 27.875 C-19.07632813 27.59140625 -20.02765625 27.3078125 -21.0078125 27.015625 C-27.15917153 25.05060753 -31.02786248 23.17761209 -35 18 C-36.24245017 13.39521291 -35.37356762 9.0617185 -33.8125 4.625 C-25.71646743 -7.10028855 -11.47289803 -5.70781449 0 0 Z " fill="#FC570F" transform="translate(557,813)"/>
<path d="M0 0 C14.85 0 29.7 0 45 0 C45 3.3 45 6.6 45 10 C39.39 10 33.78 10 28 10 C28 23.86 28 37.72 28 52 C24.37 52 20.74 52 17 52 C17 38.14 17 24.28 17 10 C11.39 10 5.78 10 0 10 C0 6.7 0 3.4 0 0 Z " fill="#FC5909" transform="translate(606,810)"/>
<path d="M0 0 C5.89614154 0.49134513 10.06445574 2.58373666 14.1875 6.8125 C17.03502144 11.36853431 17.43504603 15.98650834 16.75 21.3125 C15.3566086 25.70765458 13.48034871 28.65009071 10.0625 31.75 C4.47776119 34.38431076 -0.62106361 35.12372229 -6.5625 33.1875 C-11.30350053 31.10447591 -13.45253423 28.14667127 -15.5 23.4375 C-17.06007707 16.93717887 -16.51004982 12.18058968 -13.25 6.3125 C-9.19988362 1.91069285 -5.783591 0.55611452 0 0 Z " fill="#FDF9F8" transform="translate(986.25,818.6875)"/>
<path d="M0 0 C16 0 16 0 20.3125 2.1875 C24.60466352 6.67929903 26.1669044 9.18843277 26.4375 15.4375 C26.29064065 20.40401623 25.40631822 23.22543116 22 27 C14.9960794 33.47862656 10.2615008 32 0 32 C0 21.44 0 10.88 0 0 Z " fill="#FDF9F8" transform="translate(811,820)"/>
<path d="M0 0 C3.41955314 13.67821257 -10.17268652 35.39563164 -16.89526367 46.99755859 C-35.19714991 77.42704182 -61.05919198 98.98731617 -93 114 C-93.95374512 114.46092041 -93.95374512 114.46092041 -94.92675781 114.93115234 C-99.64968026 117.11677325 -99.64968026 117.11677325 -103 116 C-102.46632813 115.59910156 -101.93265625 115.19820312 -101.3828125 114.78515625 C-98.89595162 112.88774163 -96.44331015 110.95319593 -94 109 C-92.77603516 108.02160156 -92.77603516 108.02160156 -91.52734375 107.0234375 C-80.50342039 97.69415846 -73.47579165 86.26478901 -68 73 C-67.37595454 71.56208536 -66.75116043 70.12449491 -66.125 68.6875 C-65.75375 67.800625 -65.3825 66.91375 -65 66 C-64.01 66.495 -64.01 66.495 -63 67 C-63.51657044 71.4425058 -64.6006481 74.25701103 -67 78 C-67.309375 78.78375 -67.61875 79.5675 -67.9375 80.375 C-69.31546941 83.77939501 -71.0962514 86.87106666 -73 90 C-73.42152344 90.70382812 -73.84304688 91.40765625 -74.27734375 92.1328125 C-78.11008226 98.22697291 -82.76680906 103.08080051 -88 108 C-84.59687262 106.94124926 -81.98646769 105.99097846 -79 104 C-78.01 104 -77.02 104 -76 104 C-76 103.01 -76 102.02 -76 101 C-74.6015625 99.78125 -74.6015625 99.78125 -72.625 98.5 C-66.88793466 94.43581775 -60.18304996 88.36609993 -57 82 C-56.34 82 -55.68 82 -55 82 C-54.7525 81.46375 -54.505 80.9275 -54.25 80.375 C-51.48026978 75.11251258 -49.71854448 71.9495038 -44 70 C-41.27945794 68.41854669 -38.64569814 66.70310123 -36 65 C-31.24137931 62 -31.24137931 62 -29 62 C-28.67 60.68 -28.34 59.36 -28 58 C-27.34 58 -26.68 58 -26 58 C-26 57.01 -26 56.02 -26 55 C-25.34 55 -24.68 55 -24 55 C-23.82380127 54.11078857 -23.82380127 54.11078857 -23.64404297 53.20361328 C-22.80315261 50.32648045 -21.10328828 48.2927055 -19.33691406 45.90917969 C-17.17339499 42.81956699 -15.53138692 39.50624654 -13.875 36.125 C-13.52953125 35.42826172 -13.1840625 34.73152344 -12.828125 34.01367188 C-10.43916329 29.11265311 -8.50040578 24.25142022 -7 19 C-6.34 19 -5.68 19 -5 19 C-4.67 16.03 -4.34 13.06 -4 10 C-3.34 10 -2.68 10 -2 10 C-1.34 6.7 -0.68 3.4 0 0 Z " fill="#FB3607" transform="translate(927,489)"/>
<path d="M0 0 C30.36 0 60.72 0 92 0 C92 2.31 92 4.62 92 7 C61.64 7 31.28 7 0 7 C0 4.69 0 2.38 0 0 Z " fill="#FE5B08" transform="translate(1049,832)"/>
<path d="M0 0 C11.88 0 23.76 0 36 0 C30.44464492 6.6664261 30.44464492 6.6664261 27.33203125 9.2265625 C21.17622396 14.47901699 15.63221038 20.36012685 9.98242188 26.14453125 C9.12583984 27.01207031 8.26925781 27.87960937 7.38671875 28.7734375 C6.22982544 29.95558838 6.22982544 29.95558838 5.04956055 31.16162109 C3 33 3 33 0 34 C0 22.78 0 11.56 0 0 Z " fill="#FD720A" transform="translate(396,651)"/>
<path d="M0 0 C30.69 0 61.38 0 93 0 C93 7.92 93 15.84 93 24 C71.22 24 49.44 24 27 24 C27 23.67 27 23.34 27 23 C48.45 23 69.9 23 92 23 C92 16.07 92 9.14 92 2 C62.3 2 32.6 2 2 2 C2 41.93 2 81.86 2 123 C32.36 123 62.72 123 94 123 C94 115.74 94 108.48 94 101 C94.33 101 94.66 101 95 101 C95 108.59 95 116.18 95 124 C63.65 124 32.3 124 0 124 C0 83.08 0 42.16 0 0 Z " fill="#2D2C2D" transform="translate(1048,650)"/>
<path d="M0 0 C29.7 0 59.4 0 90 0 C90 2.31 90 4.62 90 7 C60.3 7 30.6 7 0 7 C0 4.69 0 2.38 0 0 Z " fill="#FE5B09" transform="translate(396,832)"/>
<path d="M0 0 C3.63 0 7.26 0 11 0 C11 17.16 11 34.32 11 52 C7.37 52 3.74 52 0 52 C0 34.84 0 17.68 0 0 Z " fill="#FD5909" transform="translate(900,810)"/>
<path d="M0 0 C14.85 0 29.7 0 45 0 C45 3.3 45 6.6 45 10 C39.39 10 33.78 10 28 10 C28 23.86 28 37.72 28 52 C24.37 52 20.74 52 17 52 C17 38.14 17 24.28 17 10 C11.39 10 5.78 10 0 10 C0 6.7 0 3.4 0 0 Z M1 1 C1 3.64 1 6.28 1 9 C6.28 9.33 11.56 9.66 17 10 C17.495 29.8 17.495 29.8 18 50 C20.64 50 23.28 50 26 50 C26.33 36.47 26.66 22.94 27 9 C31.95 9 36.9 9 42 9 C42 6.36 42 3.72 42 1 C28.47 1 14.94 1 1 1 Z " fill="#FC582A" transform="translate(606,810)"/>
<path d="M0 0 C0.66 0.33 1.32 0.66 2 1 C1.48342956 5.4425058 0.3993519 8.25701103 -2 12 C-2.309375 12.78375 -2.61875 13.5675 -2.9375 14.375 C-4.31546941 17.77939501 -6.0962514 20.87106666 -8 24 C-8.42152344 24.70382812 -8.84304688 25.40765625 -9.27734375 26.1328125 C-13.11008226 32.22697291 -17.76680906 37.08080051 -23 42 C-19.59687262 40.94124926 -16.98646769 39.99097846 -14 38 C-13.01 38 -12.02 38 -11 38 C-11 37.01 -11 36.02 -11 35 C-9.3203125 33.46484375 -9.3203125 33.46484375 -7.125 31.9375 C-4.88986913 30.36329493 -2.93742034 28.93742034 -1 27 C2.125 27.375 2.125 27.375 5 28 C-3.58654615 37.24075919 -16.72073701 42.6985684 -28 48 C-28.95374512 48.46092041 -28.95374512 48.46092041 -29.92675781 48.93115234 C-34.64968026 51.11677325 -34.64968026 51.11677325 -38 50 C-37.46632813 49.59910156 -36.93265625 49.19820312 -36.3828125 48.78515625 C-33.89595162 46.88774163 -31.44331015 44.95319593 -29 43 C-27.77603516 42.02160156 -27.77603516 42.02160156 -26.52734375 41.0234375 C-15.50342039 31.69415846 -8.47579165 20.26478901 -3 7 C-2.37595454 5.56208536 -1.75116043 4.12449491 -1.125 2.6875 C-0.75375 1.800625 -0.3825 0.91375 0 0 Z " fill="#F62112" transform="translate(862,555)"/>
<path d="M0 0 C0.66 0 1.32 0 2 0 C2 17.16 2 34.32 2 52 C-1.63 52 -5.26 52 -9 52 C-9 35.17 -9 18.34 -9 1 C-8.67 1 -8.34 1 -8 1 C-8 17.17 -8 33.34 -8 50 C-5.36 50 -2.72 50 0 50 C0 33.5 0 17 0 0 Z " fill="#FD5A2C" transform="translate(909,810)"/>
<path d="M0 0 C1.58110603 3.1109725 3.05500025 6.26114383 4.5 9.4375 C4.9228125 10.36433594 5.345625 11.29117187 5.78125 12.24609375 C6.1834375 13.15488281 6.585625 14.06367188 7 15 C7.3815625 15.85722656 7.763125 16.71445312 8.15625 17.59765625 C9 20 9 20 9 24 C9.66 24 10.32 24 11 24 C11.391875 24.969375 11.78375 25.93875 12.1875 26.9375 C17.38070318 38.99835037 25.25699527 49.4860215 33 60 C32.505 60.99 32.505 60.99 32 62 C25.450855 54.43513112 19.95108608 46.70233329 15 38 C14.45061768 37.04480469 14.45061768 37.04480469 13.89013672 36.0703125 C9.1877821 27.81760991 5.18933534 19.47004036 1.875 10.5625 C1.56747803 9.73927246 1.25995605 8.91604492 0.94311523 8.06787109 C0.22917817 6.06766551 -0.39420144 4.03556788 -1 2 C-0.67 1.34 -0.34 0.68 0 0 Z " fill="#F92815" transform="translate(626,497)"/>
<path d="M0 0 C14.85 0 29.7 0 45 0 C45 3.3 45 6.6 45 10 C39.39 10 33.78 10 28 10 C28 9.67 28 9.34 28 9 C32.62 9 37.24 9 42 9 C42 6.36 42 3.72 42 1 C28.8 1.33 15.6 1.66 2 2 C1.67 4.31 1.34 6.62 1 9 C6.28 9 11.56 9 17 9 C17 9.33 17 9.66 17 10 C11.39 10 5.78 10 0 10 C0 6.7 0 3.4 0 0 Z " fill="#FC693A" transform="translate(606,810)"/>
<path d="M0 0 C0 3 0 3 -1.17446899 4.52850342 C-1.72484833 5.06920471 -2.27522766 5.60990601 -2.84228516 6.16699219 C-3.46358307 6.78483582 -4.08488098 7.40267944 -4.7250061 8.03924561 C-5.74671402 9.03302216 -5.74671402 9.03302216 -6.7890625 10.046875 C-7.4851059 10.73630188 -8.18114929 11.42572876 -8.89828491 12.13604736 C-11.13357065 14.34787348 -13.37870926 16.54935581 -15.625 18.75 C-17.8481921 20.9379799 -20.06919648 23.12811427 -22.28744507 25.32110596 C-23.6688194 26.6856901 -25.05327544 28.04716418 -26.4413147 29.40496826 C-30.53053091 33.43185337 -34.32204443 37.59327883 -38 42 C-38.66 41.67 -39.32 41.34 -40 41 C-32.75415234 32.29717759 -25.20006232 24.00628595 -17.1875 16 C-16.40012451 15.21197998 -15.61274902 14.42395996 -14.80151367 13.61206055 C-10.02575647 8.88050937 -5.11899043 4.35792924 0 0 Z " fill="#FB7C11" transform="translate(699,290)"/>
<path d="M0 0 C2.60332156 3.16063087 4.14038576 6.3431652 5.6875 10.125 C6.34298828 11.70667969 6.34298828 11.70667969 7.01171875 13.3203125 C8 16 8 16 8 18 C5 17 5 17 3 14 C0.27893306 16.72106694 0.39344428 18.84776311 -0.125 22.625 C-0.29257812 23.81351562 -0.46015625 25.00203125 -0.6328125 26.2265625 C-0.75398437 27.14179688 -0.87515625 28.05703125 -1 29 C-1.66 29 -2.32 29 -3 29 C-2.85691406 27.73285156 -2.71382812 26.46570313 -2.56640625 25.16015625 C-1.98450389 19.923035 -1.45686266 14.68113927 -0.9375 9.4375 C-0.80118164 8.06754883 -0.80118164 8.06754883 -0.66210938 6.66992188 C-0.44094718 4.44665978 -0.22025136 2.22335248 0 0 Z " fill="#FCB327" transform="translate(851,255)"/>
<path d="M0 0 C3.28426103 1.05565533 4.57151556 2.61660352 6.25 5.5 C8 9 8 9 8 11 C8.66 11 9.32 11 10 11 C15.41960508 24.19735893 17.52121331 33.73348594 16 48 C15.67 48 15.34 48 15 48 C14.96261719 46.98421875 14.92523437 45.9684375 14.88671875 44.921875 C14.11365139 27.37688642 9.0422582 14.89146897 0 0 Z " fill="#FA3D1F" transform="translate(849,495)"/>
<path d="M0 0 C3.03368943 12.13475772 -7.90255006 29.20187133 -13 40 C-13.66 40 -14.32 40 -15 40 C-14.52203106 36.05675627 -13.09419281 33.35235162 -11.0546875 29.98046875 C-9.20407205 26.50542418 -8.12565255 22.76070283 -7 19 C-6.34 19 -5.68 19 -5 19 C-4.505 14.545 -4.505 14.545 -4 10 C-3.34 10 -2.68 10 -2 10 C-1.34 6.7 -0.68 3.4 0 0 Z " fill="#FC5D16" transform="translate(927,489)"/>
<path d="M0 0 C1.9375 0.3125 1.9375 0.3125 4 1 C4.33 1.99 4.66 2.98 5 4 C7.59237897 6.81458289 10.33601898 9.2964406 13.3125 11.6875 C14.6428125 12.8321875 14.6428125 12.8321875 16 14 C16 14.66 16 15.32 16 16 C16.66 16 17.32 16 18 16 C19.66666667 17.66666667 21.33333333 19.33333333 23 21 C24.6396875 22.0828125 24.6396875 22.0828125 26.3125 23.1875 C27.199375 23.785625 28.08625 24.38375 29 25 C29 25.66 29 26.32 29 27 C29.99 27 30.98 27 32 27 C32.495 28.485 32.495 28.485 33 30 C28.36394406 28.52095977 25.09804075 25.84757983 21.5 22.6875 C20.89776611 22.16422119 20.29553223 21.64094238 19.67504883 21.10180664 C15.21590959 17.17936724 10.90871644 13.11425138 6.6875 8.9375 C6.130625 8.38989014 5.57375 7.84228027 5 7.27807617 C2.61453129 4.87345461 1.08581852 3.25745555 0 0 Z " fill="#EF2015" transform="translate(659,559)"/>
<path d="M0 0 C0.66 0.33 1.32 0.66 2 1 C-3.02561031 10.25698248 -8.45841432 18.73216254 -15 27 C-15.33 25.68 -15.66 24.36 -16 23 C-15.01 22.67 -14.02 22.34 -13 22 C-12.26676204 19.98491642 -12.26676204 19.98491642 -12 18 C-11.34 18 -10.68 18 -10 18 C-10 17.01 -10 16.02 -10 15 C-9.34 15 -8.68 15 -8 15 C-7.88527344 14.4121875 -7.77054688 13.824375 -7.65234375 13.21875 C-6.95579924 10.84966448 -6.05581627 9.44973044 -4.5625 7.5 C-2.76351018 5.08228247 -1.22003745 2.77281238 0 0 Z " fill="#FA4216" transform="translate(911,529)"/>
<path d="M0 0 C0 5.16642127 -3.6468654 8.28796721 -7 12 C-11.85943143 16.81470466 -16.92219008 21.41772949 -22 26 C-22.66 25.67 -23.32 25.34 -24 25 C-15.36140483 16.18863293 -15.36140483 16.18863293 -11.5625 13.125 C-8.84519628 11.07805275 -8.84519628 11.07805275 -7 8 C-6.34 8 -5.68 8 -5 8 C-4.9175 7.4225 -4.835 6.845 -4.75 6.25 C-3.79468987 3.3840696 -2.21530827 2.0009236 0 0 Z " fill="#FD9A03" transform="translate(783,276)"/>
<path d="M0 0 C4.07137763 2.03568881 6.89111674 3.67421791 10 7 C10.37805084 10.87124065 9.21882378 14.34352867 8 18 C5.36 12.06 2.72 6.12 0 0 Z " fill="#FDB40F" transform="translate(759,125)"/>
<path d="M0 0 C4.14685032 1.66075316 7.06728125 4.6596862 10.25 7.6875 C11.40420219 8.77032668 12.55914906 9.85236015 13.71484375 10.93359375 C14.27413574 11.45808105 14.83342773 11.98256836 15.40966797 12.52294922 C18.53698008 15.42749916 21.76117558 18.22106908 25 21 C24.67 21.66 24.34 22.32 24 23 C23.2265625 22.28714844 22.453125 21.57429688 21.65625 20.83984375 C12.08024718 11.69808958 12.08024718 11.69808958 1.78125 3.4375 C1.1934375 2.963125 0.605625 2.48875 0 2 C0 1.34 0 0.68 0 0 Z " fill="#FC391A" transform="translate(777,490)"/>
<path d="M0 0 C0.66 0.33 1.32 0.66 2 1 C1.48342956 5.4425058 0.3993519 8.25701103 -2 12 C-2.4640625 13.3303125 -2.4640625 13.3303125 -2.9375 14.6875 C-4.22303042 17.48541916 -5.26623814 17.79051748 -8 19 C-7.04381086 16.5824652 -6.08513489 14.16596734 -5.125 11.75 C-4.85558594 11.06808594 -4.58617187 10.38617187 -4.30859375 9.68359375 C-2.9954778 6.38479027 -1.66598286 3.13787064 0 0 Z " fill="#F73626" transform="translate(862,555)"/>
<path d="M0 0 C0.99 0.33 1.98 0.66 3 1 C2.44570313 2.15757812 1.89140625 3.31515625 1.3203125 4.5078125 C0.58836036 6.04678878 -0.14340036 7.58585612 -0.875 9.125 C-1.23980469 9.88554687 -1.60460937 10.64609375 -1.98046875 11.4296875 C-3.93814983 15.55861487 -5.66922972 19.61546214 -7 24 C-7.33 24 -7.66 24 -8 24 C-8 21.36 -8 18.72 -8 16 C-7.01 15.67 -6.02 15.34 -5 15 C-5 13.35 -5 11.7 -5 10 C-4.34 10 -3.68 10 -3 10 C-2.01 6.7 -1.02 3.4 0 0 Z " fill="#FB4617" transform="translate(736,368)"/>
<path d="M0 0 C4.14506081 0.82145852 7.2836419 2.80122359 10.87890625 4.94140625 C13.05228124 6.22327718 13.05228124 6.22327718 16 6 C16 6.66 16 7.32 16 8 C16.86625 8.1546875 16.86625 8.1546875 17.75 8.3125 C20.32049158 9.09792798 21.93657284 10.30504197 24 12 C19.12788607 11.36949114 15.19739922 9.32162911 10.875 7.125 C10.15957031 6.77308594 9.44414063 6.42117188 8.70703125 6.05859375 C8.01738281 5.71183594 7.32773437 5.36507812 6.6171875 5.0078125 C5.68302002 4.53819092 5.68302002 4.53819092 4.72998047 4.05908203 C2.85709662 2.91251554 1.48837126 1.60588926 0 0 Z " fill="#E82219" transform="translate(698,593)"/>
<path d="M0 0 C3.12192749 4.16256998 3.90905845 5.90727312 4 11 C2.68 12.32 1.36 13.64 0 15 C0 10.05 0 5.1 0 0 Z " fill="#FEA60C" transform="translate(851,255)"/>
<path d="M0 0 C1.45903258 0.30921884 2.91720722 0.62248799 4.375 0.9375 C5.18710937 1.11152344 5.99921875 1.28554688 6.8359375 1.46484375 C9 2 9 2 11 3 C11.33 2.34 11.66 1.68 12 1 C12 1.66 12 2.32 12 3 C12.763125 3.12375 13.52625 3.2475 14.3125 3.375 C17 4 17 4 20 6 C12.63904818 5.68676801 6.69116911 4.06085395 0 1 C0 0.67 0 0.34 0 0 Z " fill="#E71A14" transform="translate(723,605)"/>
<path d="M0 0 C1.3921875 0.3403125 1.3921875 0.3403125 2.8125 0.6875 C-0.409607 4.5540284 -3.33672412 5.56809018 -8.1875 6.6875 C-4.97117876 -0.48737047 -4.97117876 -0.48737047 0 0 Z " fill="#F32A0A" transform="translate(864.1875,582.3125)"/>
<path d="M0 0 C0.33 0 0.66 0 1 0 C1.41467342 8.01701946 -0.14060121 15.21930149 -2 23 C-2.33 23 -2.66 23 -3 23 C-3 19.7 -3 16.4 -3 13 C-2.34 13 -1.68 13 -1 13 C-0.67 8.71 -0.34 4.42 0 0 Z " fill="#FD6917" transform="translate(931,466)"/>
<path d="M0 0 C0.66 0.66 1.32 1.32 2 2 C1.03578125 2.04898438 0.0715625 2.09796875 -0.921875 2.1484375 C-2.18515625 2.22320313 -3.4484375 2.29796875 -4.75 2.375 C-6.62945313 2.47941406 -6.62945313 2.47941406 -8.546875 2.5859375 C-11.60998121 2.95323304 -13.41974266 3.39711286 -16 5 C-16.66 4.34 -17.32 3.68 -18 3 C-12.09697795 0.65553734 -6.39979202 -1.04182661 0 0 Z " fill="#FC551F" transform="translate(991,809)"/>
<path d="M0 0 C3.65646331 3.65646331 4.79304546 9.36449726 5.19140625 14.4375 C5.18809328 16.2927611 5.10291153 18.14759239 5 20 C4.67 20 4.34 20 4 20 C3.896875 18.989375 3.79375 17.97875 3.6875 16.9375 C3.15606151 12.97139204 3.15606151 12.97139204 1.4375 9.4375 C-0.01807093 5.95678691 -0.27222761 3.72044395 0 0 Z " fill="#FD3C20" transform="translate(816,532)"/>
<path d="M0 0 C0 3 0 3 -2.1875 5.48046875 C-3.115625 6.37378906 -4.04375 7.26710938 -5 8.1875 C-5.928125 9.08855469 -6.85625 9.98960937 -7.8125 10.91796875 C-8.534375 11.60503906 -9.25625 12.29210937 -10 13 C-10.99 12.67 -11.98 12.34 -13 12 C-8.71 8.04 -4.42 4.08 0 0 Z " fill="#FB9018" transform="translate(723,269)"/>
<path d="M0 0 C0 4.07211906 -1.5535064 5.1414603 -4.25 8.125 C-5.43335938 9.45917969 -5.43335938 9.45917969 -6.640625 10.8203125 C-8.90987032 12.9167345 -9.99179674 13.65502256 -13 14 C-8.88380164 9.08064098 -4.59589638 4.47352044 0 0 Z " fill="#FC9C13" transform="translate(742,251)"/>
<path d="M0 0 C3.37591285 1.12530428 4.28446799 2.16053617 6.5625 4.8125 C7.46162109 5.84310547 7.46162109 5.84310547 8.37890625 6.89453125 C9.89648749 8.86555845 10.97902958 10.73964261 12 13 C7.82556637 9.49925018 3.6854506 6.02049157 0 2 C0 1.34 0 0.68 0 0 Z " fill="#FC4311" transform="translate(829,472)"/>
<path d="M0 0 C1.15224028 0.92961422 2.29659176 1.8690125 3.4375 2.8125 C4.07558594 3.33457031 4.71367188 3.85664063 5.37109375 4.39453125 C7 6 7 6 8 9 C5.125 8.4375 5.125 8.4375 2 7 C0.625 3.375 0.625 3.375 0 0 Z " fill="#FDBA23" transform="translate(782,145)"/>
<path d="M0 0 C3.23861303 1.44424635 5.61969163 3.25772247 8.25 5.625 C8.95640625 6.25664062 9.6628125 6.88828125 10.390625 7.5390625 C10.92171875 8.02117187 11.4528125 8.50328125 12 9 C11.67 9.66 11.34 10.32 11 11 C9.16365304 9.35742342 7.3308593 7.71117305 5.5 6.0625 C4.97535156 5.59392578 4.45070313 5.12535156 3.91015625 4.64257812 C2.5878256 3.44904592 1.29166061 2.22665821 0 1 C0 0.67 0 0.34 0 0 Z " fill="#FB3F27" transform="translate(790,502)"/>
<path d="M0 0 C0.66 0 1.32 0 2 0 C0.8141763 3.37503669 -0.27573689 5.64722731 -3 8 C-3.99 7.67 -4.98 7.34 -6 7 C-5.04882866 5.8274869 -4.08882991 4.66212985 -3.125 3.5 C-2.59132813 2.8503125 -2.05765625 2.200625 -1.5078125 1.53125 C-0.76144531 0.77328125 -0.76144531 0.77328125 0 0 Z " fill="#FA7313" transform="translate(824,339)"/>
<path d="M0 0 C3.36591866 1.44253657 5.51047079 3.33264727 8 6 C7.34 6.66 6.68 7.32 6 8 C5.01 7.67 4.02 7.34 3 7 C1.3125 3.4375 1.3125 3.4375 0 0 Z " fill="#FCB527" transform="translate(759,125)"/>
<path d="M0 0 C7.48291572 6.15034169 7.48291572 6.15034169 10 10 C7 10 7 10 5.17578125 8.3203125 C4.56089844 7.59585937 3.94601562 6.87140625 3.3125 6.125 C2.68988281 5.40570313 2.06726563 4.68640625 1.42578125 3.9453125 C0 2 0 2 0 0 Z " fill="#FD431B" transform="translate(755,468)"/>
<path d="M0 0 C0.99 0.99 1.98 1.98 3 3 C-3.625 6.125 -3.625 6.125 -7 5 C-4.69 3.35 -2.38 1.7 0 0 Z " fill="#F92B26" transform="translate(831,600)"/>
<path d="M0 0 C6.75 1.625 6.75 1.625 9 5 C6.36 4.67 3.72 4.34 1 4 C0.67 2.68 0.34 1.36 0 0 Z " fill="#FC5F1E" transform="translate(535,828)"/>
<path d="M0 0 C1.14926266 0.95421808 2.29430541 1.91352045 3.4375 2.875 C4.07558594 3.40867187 4.71367188 3.94234375 5.37109375 4.4921875 C7 6 7 6 8 8 C4.82461668 7.65978036 3.97723135 6.97533396 1.75 4.5625 C0 2 0 2 0 0 Z " fill="#FC370E" transform="translate(767,480)"/>
<path d="M0 0 C0.66 0.33 1.32 0.66 2 1 C1.625 3.9375 1.625 3.9375 1 7 C0.01 7.495 0.01 7.495 -1 8 C-1.04241723 5.66705225 -1.04092937 3.33297433 -1 1 C-0.67 0.67 -0.34 0.34 0 0 Z " fill="#F82510" transform="translate(862,555)"/>
</svg>
