<svg xmlns="http://www.w3.org/2000/svg" viewBox="185 640 970 230"><path fill="#fa5903" d="M251.92 651.6c1.712.713 3.025 1.897 4.41 3.097l.783.677c11.354 9.923 21.83 23.753 23.064 39.282.287 6.101.195 12.034-1.797 17.844l-.3.918c-2.254 6.77-5.672 12.419-10.62 17.562a227 227 0 0 0-1.418 1.68c-2.825 3.236-6.186 5.948-9.517 8.643-2.415 1.973-4.782 4-7.125 6.057l-.894.783c-5.242 4.9-9.037 12.214-9.606 19.377l-.103.978c-.574 10.216 5.376 19.624 11.794 26.963a118 118 0 0 0 10.632 10.446c1.453 1.258 2.86 2.566 4.278 3.864.934.842 1.885 1.65 2.851 2.453 4.971 4.35 9.548 10.84 10.108 17.582.371 7.776-1.479 13.866-6.38 20.034l-.822 1.091c-2.603 3.061-6.74 5.21-10.518 6.469-11.436.888-22.405-1.927-32.34-7.56l-.844-.477c-4.322-2.483-8.11-5.373-11.756-8.763l-.697-.641c-5.938-5.515-10.611-11.965-14.423-19.099l-.41-.763c-8.695-16.542-10.315-36.284-5.024-54.126 5.681-18.038 17.214-32.921 31.474-45.071l.739-.633 1.412-1.204a258 258 0 0 0 7.322-6.468c.89-.81 1.792-1.597 2.707-2.379 10.19-8.923 18.377-20.728 19.441-34.576.194-8.43-2.703-16.577-6.421-24.04"/><path fill="#fd9004" d="M290.56 706.2c.892 1.123 1.543 2.187 2.107 3.504l.458 1.055.48 1.111c1.276 2.898 2.615 5.645 4.266 8.35a62 62 0 0 1 1.798 3.2c2.645 4.884 5.603 9.603 8.541 14.314 8.678 13.926 16.716 29.545 16.89 46.345l.012.994q.014 1.579.02 3.158c0 .538 0 .538.003 1.087.001 5.266-.321 10.088-1.815 15.162l-.353 1.56c-2.738 11.822-9.448 22.471-17.707 31.2l-.978 1.045c-5.949 6.17-13.15 10.45-20.862 14.075-.267.13-.534.258-.81.391-1.983.918-1.983.918-3.39.449l.68-.51c1.044-.797 2.074-1.61 3.1-2.43l1.039-.83c4.56-3.86 7.742-8.729 9.881-14.29l.525-1.339c2.272-6.688 1.902-14.428-1.203-20.755-1.642-3.181-3.652-5.897-6.042-8.566l-.917-1.055a111 111 0 0 0-5.226-5.507c-1.822-1.808-3.555-3.646-5.197-5.618l-.792-.934c-6.38-7.708-10.899-16.056-10.22-26.283.657-6.595 4.883-11.632 8.909-16.575 5.379-6.632 10.308-14.012 13.023-22.148l.283-.847c2.075-6.321 3.192-12.67 3.497-19.313"/><path fill="#fd5b03" d="M279.22 741.48h.84l-.09.84a551 551 0 0 0-.383 3.806l-.142 1.322c-.232 2.436-.258 4.298.615 6.632l.376 1.257c2.783 8.74 9.201 14.84 15.418 21.3 6.472 6.92 10.921 14.937 13.197 24.124.366 1.565.366 1.565.848 2.823.412 1.351.51 2.425.513 3.833l.003 1.422-.01 1.468.01 1.459c-.006 2.627-.183 4.902-.955 7.414l-.394 1.444c-1.01 3.39-2.247 6.604-3.678 9.839-.422 1.013-.751 1.927-.968 2.997 1.37-.652 2.624-1.33 3.885-2.179 1.155-.761 1.155-.761 1.995-.761l.42-1.68h.84v-1.26h.84l.15-.754c.353-1.209 1.067-2.063 1.808-3.064.91-1.298 1.599-2.69 2.294-4.11l.44-.886c1.004-2.059 1.818-4.1 2.448-6.306h.84l.42-3.78h.84l.84-4.2c1.436 5.745-4.273 14.866-7.096 19.739-7.687 12.78-18.549 21.836-31.964 28.141-.267.13-.534.258-.81.391-1.983.918-1.983.918-3.39.449l.68-.51c1.044-.797 2.074-1.61 3.1-2.43l1.039-.83c4.56-3.86 7.742-8.729 9.881-14.29l.525-1.339c2.272-6.688 1.902-14.428-1.203-20.755-1.642-3.181-3.652-5.897-6.042-8.566l-.917-1.055a111 111 0 0 0-5.226-5.507c-1.822-1.808-3.555-3.646-5.197-5.618l-.792-.934c-6.38-7.708-10.899-16.056-10.22-26.283.655-6.582 4.88-11.673 8.919-16.6 1.508-1.842 2.926-3.747 4.342-5.661.691-.922.691-.922 1.111-1.342"/><path fill="#fb3607" d="M322.48 804.48c1.436 5.745-4.273 14.866-7.096 19.739-7.687 12.78-18.549 21.836-31.964 28.141l-.81.391c-1.983.918-1.983.918-3.39.449l.68-.51c1.044-.797 2.074-1.61 3.1-2.43l1.039-.83c4.63-3.918 7.581-8.719 9.881-14.29l.787-1.811.473-1.129.84.42c-.217 1.866-.672 3.048-1.68 4.62l-.394.998c-.578 1.43-1.326 2.728-2.126 4.042l-.536.896c-1.61 2.56-3.566 4.598-5.764 6.664 1.43-.445 2.526-.844 3.78-1.68h1.26v-1.26c.587-.512.587-.512 1.417-1.05 2.41-1.707 5.226-4.256 6.563-6.93h.84l.315-.682c1.163-2.21 1.903-3.54 4.305-4.358 1.143-.664 2.249-1.385 3.36-2.1 1.999-1.26 1.999-1.26 2.94-1.26l.42-1.68h.84v-1.26h.84l.15-.754c.353-1.209 1.067-2.063 1.808-3.064.91-1.298 1.599-2.69 2.294-4.11l.44-.886c1.004-2.059 1.818-4.1 2.448-6.306h.84l.42-3.78h.84z"/><path fill="#f62112" d="m295.18 832.2.84.42c-.217 1.866-.672 3.048-1.68 4.62l-.394.998c-.578 1.43-1.326 2.728-2.126 4.042l-.536.896c-1.61 2.56-3.566 4.598-5.764 6.664 1.43-.445 2.526-.844 3.78-1.68h1.26v-1.26c.705-.645.705-.645 1.627-1.286.94-.661 1.76-1.26 2.573-2.074 1.312.158 1.312.158 2.52.42-3.606 3.881-9.123 6.173-13.86 8.4l-.81.391c-1.983.918-1.983.918-3.39.449l.68-.51c1.044-.797 2.074-1.61 3.1-2.43l1.039-.83c4.63-3.918 7.581-8.719 9.881-14.29l.787-1.811z"/><path fill="#f92815" d="M196.06 807.84c.664 1.307 1.283 2.63 1.89 3.964l.538 1.18.512 1.156.486 1.091c.354 1.009.354 1.009.354 2.689h.84l.499 1.234c2.18 5.065 5.489 9.47 8.741 13.886l-.42.84a62 62 0 0 1-7.14-10.08l-.466-.81c-1.975-3.467-3.654-6.973-5.047-10.714l-.39-1.047c-.3-.84-.563-1.694-.817-2.549z"/><path fill="#fb7c11" d="M226.72 720.9c0 1.26 0 1.26-.493 1.902l-.7.688-.792.786-.866.844-.886.877q-1.41 1.394-2.826 2.778-1.4 1.379-2.798 2.76a500 500 0 0 1-1.744 1.715 73 73 0 0 0-4.855 5.29l-.84-.42a155 155 0 0 1 9.581-10.5l1.002-1.003a112 112 0 0 1 6.217-5.717"/><path fill="#fcb327" d="M290.56 706.2c1.093 1.327 1.739 2.664 2.389 4.253l.556 1.342c.415 1.125.415 1.125.415 1.965-1.26-.42-1.26-.42-2.1-1.68-1.143 1.143-1.095 2.036-1.313 3.623l-.213 1.512-.154 1.165h-.84l.182-1.613c.245-2.2.466-4.4.684-6.603l.116-1.163z"/><path fill="#fa3d1f" d="M289.72 807c1.38.443 1.92 1.099 2.625 2.31.735 1.47.735 1.47.735 2.31h.84c2.276 5.543 3.159 9.548 2.52 15.54h-.42l-.048-1.293c-.324-7.369-2.454-12.613-6.252-18.867"/><path fill="#fc5d16" d="M322.48 804.48c1.274 5.097-3.32 12.265-5.46 16.8h-.84c.2-1.656.8-2.792 1.657-4.208.777-1.46 1.23-3.033 1.703-4.612h.84l.42-3.78h.84z"/><path fill="#ef2015" d="M209.92 833.88c.814.131.814.131 1.68.42l.42 1.26c1.089 1.182 2.241 2.225 3.491 3.229l1.129.971v.84h.84l2.1 2.1 1.391.919 1.129.761v.84h1.26l.42 1.26c-1.947-.621-3.319-1.744-4.83-3.071l-.766-.666a127 127 0 0 1-5.455-5.11l-.709-.696c-1.002-1.01-1.644-1.689-2.1-3.057"/><path fill="#fa4216" d="m315.76 821.28.84.42c-2.11 3.888-4.393 7.448-7.14 10.92l-.42-1.68 1.26-.42c.308-.846.308-.846.42-1.68h.84v-1.26h.84l.146-.748c.293-.995.67-1.583 1.298-2.402.755-1.015 1.404-1.985 1.916-3.15"/><path fill="#fd9a03" d="M262 715.02c0 2.17-1.532 3.48-2.94 5.04-2.041 2.022-4.167 3.955-6.3 5.88l-.84-.42c3.628-3.7 3.628-3.7 5.224-4.987 1.141-.86 1.141-.86 1.916-2.153h.84l.105-.735c.401-1.204 1.065-1.785 1.995-2.625"/><path fill="#fdb40f" d="M251.92 651.6c1.71.855 2.894 1.543 4.2 2.94.159 1.626-.328 3.084-.84 4.62z"/><path fill="#fc391a" d="M259.48 804.9c1.742.698 2.968 1.957 4.305 3.229l1.455 1.363.712.668a137 137 0 0 0 4.028 3.56l-.42.84-.984-.907c-4.022-3.84-4.022-3.84-8.348-7.31l-.748-.603z"/><path fill="#f73626" d="m295.18 832.2.84.42c-.217 1.866-.672 3.048-1.68 4.62l-.394 1.129c-.54 1.175-.978 1.303-2.126 1.811l1.207-3.045.343-.868c.552-1.385 1.11-2.75 1.81-4.067"/><path fill="#fb4617" d="m242.26 753.66 1.26.42-.705 1.473-.923 1.94-.464.967c-.822 1.735-1.55 3.438-2.108 5.28h-.42v-3.36l1.26-.42v-2.1h.84z"/><path fill="#e82219" d="M226.3 848.16c1.74.345 3.06 1.177 4.57 2.075.912.539.912.539 2.15.445v.84l.735.131c1.08.33 1.758.837 2.625 1.549-2.046-.265-3.697-1.125-5.513-2.048l-.91-.447-.878-.442-.792-.398c-.787-.482-1.362-1.03-1.987-1.705"/><path fill="#fea60c" d="M290.56 706.2c1.311 1.748 1.642 2.481 1.68 4.62l-1.68 1.68z"/><path fill="#e71a14" d="M236.8 853.2q.92.195 1.837.394l1.034.221c.909.225.909.225 1.749.645l.42-.84v.84l.971.158c1.129.262 1.129.262 2.389 1.102-3.092-.132-5.59-.814-8.4-2.1z"/><path fill="#f32a0a" d="m296.099 843.671 1.181.289c-1.353 1.624-2.583 2.05-4.62 2.52 1.35-3.013 1.35-3.013 3.439-2.809"/><path fill="#fd6917" d="M324.16 794.82h.42c.174 3.367-.48 6.392-1.26 9.66h-.42v-4.2h.84z"/><path fill="#fd3c20" d="M275.86 822.54c1.536 1.536 2.013 3.933 2.18 6.064-.001.779-.037 1.558-.08 2.336h-.42l-.131-1.286c-.223-1.666-.223-1.666-.945-3.15-.612-1.462-.718-2.401-.604-3.964"/><path fill="#fb9018" d="M236.8 712.08c0 1.26 0 1.26-.919 2.302l-1.181 1.137-1.181 1.147-.919.874-1.26-.42z"/><path fill="#fc9c13" d="M244.78 704.52c0 1.71-.652 2.16-1.785 3.413l-1.004 1.132c-.953.88-1.408 1.19-2.671 1.335a78 78 0 0 1 5.46-5.88"/><path fill="#fc4311" d="M281.32 797.34c1.418.473 1.8.907 2.756 2.021l.763.875a12.3 12.3 0 0 1 1.521 2.564c-1.753-1.47-3.492-2.931-5.04-4.62z"/><path fill="#fdba23" d="M261.58 660q.726.586 1.444 1.181l.812.665c.684.674.684.674 1.104 1.934-1.208-.236-1.208-.236-2.52-.84-.578-1.523-.578-1.523-.84-2.94"/><path fill="#fb3f27" d="M264.94 809.94c1.36.607 2.36 1.368 3.465 2.362l.9.804.675.614-.42.84q-1.156-1.035-2.31-2.074l-.668-.596a89 89 0 0 1-1.642-1.53z"/><path fill="#fa7313" d="M279.22 741.48h.84c-.498 1.418-.956 2.372-2.1 3.36l-1.26-.42q.6-.738 1.207-1.47l.68-.827z"/><path fill="#fcb527" d="M251.92 651.6c1.414.606 2.314 1.4 3.36 2.52l-.84.84-1.26-.42c-.709-1.496-.709-1.496-1.26-2.94"/><path fill="#fd431b" d="M250.24 795.66c3.143 2.583 3.143 2.583 4.2 4.2-1.26 0-1.26 0-2.026-.705l-.783-.922-.792-.916c-.599-.817-.599-.817-.599-1.657"/><path fill="#f92b26" d="m282.16 851.1 1.26 1.26c-2.783 1.313-2.783 1.313-4.2.84z"/><path fill="#fc370e" d="M255.28 800.7q.724.601 1.444 1.207l.812.68c.684.633.684.633 1.104 1.473-1.334-.143-1.69-.43-2.625-1.444-.735-1.076-.735-1.076-.735-1.916"/><path fill="#f82510" d="m295.18 832.2.84.42c-.158 1.234-.158 1.234-.42 2.52l-.84.42q-.026-1.47 0-2.94z"/><path fill="#1A1310" d="M645 651c26 0 26 0 31.25 4.438.91 1.56 1.815 3.124 2.658 4.721 2.254 3.8 5.3 7.048 8.154 10.404q1.825 2.205 3.641 4.417l1.729 2.103a898 898 0 0 1 7.736 9.624c4.69 5.871 9.482 11.661 14.27 17.453l3.687 4.465 1.835 2.22c3.7 4.49 7.326 9.022 10.806 13.686 1.188 1.611 1.188 1.611 3.234 2.469v-76h27v123c-25 0-25 0-31.375-5.625-1.44-1.917-1.44-1.917-2.367-3.602-2.272-3.877-4.936-7.283-7.758-10.773q-1.377-1.764-2.75-3.531c-2.668-3.395-5.442-6.69-8.25-9.969-4.207-4.916-8.249-9.936-12.221-15.043-4.175-5.358-8.459-10.622-12.777-15.864-2.537-3.099-4.97-6.215-7.26-9.503-1.892-3.107-1.892-3.107-4.242-4.09v78h-27zM587 663l2 3-2.23 2.633-2.957 3.492-1.463 1.727A1622 1622 0 0 0 573 685l-2.344-1.426c-14.747-8.815-28.702-11.482-45.77-9.148-8.714 2.265-16.638 7.9-21.636 15.383-4.292 7.524-5.61 14.23-5.687 22.816l-.031 2.386c.14 9.431 3.253 17.85 9.468 24.989 7.393 6.39 15.2 10.155 25 11l2.133.195c10.136.502 19.905-2.714 28.867-7.195l1-18h-31v-23h58l.563 27.625.248 8.694q.04 3.423.068 6.845l.14 3.571c.007 8.18.007 8.18-2.97 11.33-2.293 1.55-4.538 2.778-7.049 3.935l-3.187 1.793c-14.118 7-26.594 9.554-42.375 9.457l-3.827.023c-17.307-.036-33.848-5.673-46.892-17.457-12.885-13.617-19.36-30.223-19.024-48.828 1.364-17.85 8.632-34.15 21.938-46.207 27.166-23.156 70.052-20.144 98.367-.781M1048 650h93v25h-65v26h56v23h-56v26h68v24h-96zM894 651h109v24h-41v99h-27v-99h-41zM821 651h28v123h-28zM423 671v103h-27a3991 3991 0 0 1-.363-31.372c-.036-4.857-.086-9.712-.165-14.568a1136 1136 0 0 1-.136-14.064 385 385 0 0 0-.076-5.36c-.285-13.995-.285-13.995 2.258-18.067 2.519-2.23 4.836-3.327 7.966-4.499 4.084-1.737 6.737-5.021 9.766-8.195q1.88-1.944 3.766-3.883l1.665-1.739C422 671 422 671 423 671"/><path fill="#fc570e" d="M1004.25 814.688c4.8 3.86 7.95 8.355 9.563 14.312l.187 3 .313 3.688c-.137 7.12-2.682 14.044-7.563 19.25A76 76 0 0 1 1003 858l-1.633 1.313c-6.652 4.295-15.785 3.583-23.367 2.687-3.222-.808-5.422-1.928-8-4l-1.883-1.437c-5.712-4.972-8.268-11.297-9.46-18.696-.337-6.924 1.69-14.213 5.968-19.68 10.742-11.33 27.04-12.165 39.625-3.5"/><path fill="#fb550d" d="M800 810c29.8 0 29.8 0 40.563 6.563 5.02 5.02 7.727 10.879 7.937 18-.458 8.345-2.707 14.565-8.46 20.71C828.69 864.883 814.153 862 800 862z"/><path fill="#fc5710" d="M699 810h11l.012 3.118c.022 3.836.077 7.67.14 11.506q.035 2.484.044 4.97c.009 2.389.05 4.775.097 7.164l-.012 2.226c.162 5.757 1.753 8.133 5.719 12.016 4.309 1.746 8.14 1.313 12.438-.25 2.771-1.659 2.771-1.659 4.562-4.75.24-2.752.373-5.412.414-8.168l.059-2.408c.06-2.537.106-5.074.152-7.611l.117-5.163q.142-6.324.258-12.65h11q.149 7.684.22 15.369.03 2.61.082 5.22c.049 2.512.071 5.023.089 7.536l.062 2.327c.002 5.637-1.379 9.81-4.453 14.548-2.07 2.059-2.07 2.059-4.125 3.438l-2.07 1.433c-5.844 3.656-14.09 2.873-20.805 2.129-5.067-1.539-8.042-3.87-11.437-7.875-3.004-6.007-3.855-11.596-3.758-18.246l.008-2.257c.011-2.353.036-4.706.062-7.06q.016-2.409.027-4.818.035-5.873.098-11.744"/><path fill="#fc570f" d="m557 813 3 3-5 7c-5.75-1.875-5.75-1.875-8-3-1.997-.122-4-.175-6-.187l-3.25-.043c-2.895-.056-2.895-.056-4.75 2.23-.312 2.53-.312 2.53 1 5 3.489 1.65 6.839 2.677 10.543 3.707 6.784 1.92 12.575 4.026 16.457 10.293.863 5.146.597 9.686-1.562 14.438-3.922 4.122-7.891 6.713-13.594 7.058q-2.173.002-4.344-.058l-2.184.021c-7.664-.09-13.15-3.098-19.316-7.459 1.372-2.954 2.989-5.44 5-8l1.742.895c7.106 3.479 13.396 5.082 21.258 3.105l2-2c-.32-2.603-.32-2.603-1-5l-1.833-.547c-2.77-.84-5.53-1.709-8.292-2.578l-2.883-.86c-6.151-1.964-10.02-3.837-13.992-9.015-1.242-4.605-.374-8.938 1.188-13.375C531.284 805.9 545.528 807.292 557 813"/><path fill="#fc5909" d="M606 810h45v10h-17v42h-11v-42h-17z"/><path fill="#fdf9f8" d="M986.25 818.688c5.896.49 10.064 2.583 14.188 6.812 2.847 4.556 3.247 9.174 2.562 14.5-1.393 4.395-3.27 7.338-6.687 10.438-5.585 2.634-10.684 3.373-16.625 1.437-4.742-2.083-6.89-5.04-8.938-9.75-1.56-6.5-1.01-11.257 2.25-17.125 4.05-4.402 7.466-5.756 13.25-6.312M811 820c16 0 16 0 20.313 2.188 4.292 4.491 5.854 7 6.125 13.25-.147 4.966-1.032 7.787-4.438 11.562-7.004 6.479-11.738 5-22 5z"/><path fill="#fe5b08" d="M1049 832h92v7h-92z"/><path fill="#fd720a" d="M396 651h36c-5.555 6.666-5.555 6.666-8.668 9.227-6.156 5.252-11.7 11.133-17.35 16.918l-2.595 2.628-2.337 2.389C399 684 399 684 396 685z"/><path fill="#1A1310" d="M1048 650h93v24h-66v-1h65v-21h-90v121h92v-22h1v23h-95z"/><path fill="#fe5b09" d="M396 832h90v7h-90z"/><path fill="#fd5909" d="M900 810h11v52h-11z"/><path fill="#fc582a" d="M606 810h45v10h-17v42h-11v-42h-17zm1 1v8l16 1 1 40h8l1-41h15v-8z"/><path fill="#fd5a2c" d="M909 810h2v52h-11v-51h1v49h8z"/><path fill="#fc693a" d="M606 810h45v10h-17v-1h14v-8l-40 1-1 7h16v1h-17z"/><path fill="#fc551f" d="m991 809 2 2-2.922.148-3.828.227-3.797.21c-3.063.368-4.873.812-7.453 2.415l-2-2c5.903-2.344 11.6-4.042 18-3"/><path fill="#fc5f1e" d="M535 828c6.75 1.625 6.75 1.625 9 5l-8-1z"/></svg>