<svg xmlns="http://www.w3.org/2000/svg" width="1536" height="1024"><path fill="#fa5903" d="M759 125c4.075 1.698 7.202 4.516 10.5 7.375l1.864 1.611c27.033 23.625 51.977 56.556 54.915 93.528.684 14.526.465 28.653-4.279 42.486l-.715 2.187C815.918 288.304 807.78 301.754 796 314a540 540 0 0 0-3.375 4c-6.728 7.705-14.73 14.161-22.66 20.578-5.75 4.697-11.386 9.524-16.965 14.422l-2.129 1.863C738.391 366.533 729.356 383.945 728 401l-.246 2.328c-1.365 24.325 12.8 46.724 28.082 64.2a281 281 0 0 0 25.314 24.869c3.458 2.996 6.812 6.11 10.186 9.2 2.223 2.006 4.487 3.928 6.789 5.84 11.835 10.359 22.733 25.81 24.066 41.862.883 18.515-3.522 33.016-15.191 47.701l-1.957 2.598C798.845 606.886 788.994 612.002 780 615c-27.23 2.115-53.345-4.588-77-18l-2.01-1.136C690.7 589.952 681.68 583.072 673 575l-1.66-1.526C657.203 560.342 646.077 544.986 637 528l-.975-1.816c-20.703-39.387-24.562-86.392-11.962-128.871C637.589 354.363 665.048 318.928 699 290l1.76-1.506q1.68-1.436 3.363-2.868a615 615 0 0 0 17.432-15.4 271 271 0 0 1 6.445-5.663c24.26-21.247 43.755-49.354 46.29-82.325.46-20.073-6.437-39.47-15.29-57.238"/><path fill="#fd9004" d="M851 255c2.125 2.673 3.674 5.207 5.016 8.344l1.092 2.51 1.142 2.646c3.037 6.9 6.227 13.44 10.156 19.879 1.521 2.5 2.911 5.035 4.282 7.621 6.297 11.628 13.341 22.863 20.336 34.08 20.663 33.159 39.8 70.345 40.214 110.346l.03 2.367q.035 3.76.044 7.52l.008 2.588c.005 12.537-.764 24.017-4.32 36.099l-.84 3.715C921.641 520.862 905.664 546.217 886 567l-2.328 2.488C869.508 584.178 852.363 594.37 834 603l-1.927.931c-4.723 2.186-4.723 2.186-8.073 1.069l1.617-1.215A414 414 0 0 0 833 598l2.473-1.977c10.86-9.19 18.434-20.782 23.527-34.023l1.25-3.187c5.408-15.925 4.53-34.354-2.865-49.418-3.908-7.574-8.693-14.04-14.385-20.395l-2.184-2.512c-3.991-4.532-8.15-8.865-12.441-13.113-4.34-4.303-8.466-8.679-12.375-13.375l-1.887-2.223c-15.19-18.353-25.949-38.23-24.332-62.58 1.563-15.702 11.627-27.694 21.211-39.463C823.8 339.942 835.536 322.372 842 303l.674-2.017c4.94-15.05 7.599-30.165 8.326-45.983"/><path fill="#fd5b03" d="M824 339h2l-.215 2c-.317 3.02-.614 6.04-.91 9.063l-.34 3.146c-.552 5.801-.615 10.234 1.465 15.791l.895 2.992c6.626 20.811 21.908 35.335 36.71 50.715 15.409 16.475 26.003 35.565 31.422 57.438.87 3.725.87 3.725 2.017 6.721.981 3.217 1.214 5.774 1.222 9.126l.007 3.387-.023 3.496.023 3.473c-.014 6.253-.435 11.671-2.273 17.652l-.937 3.438c-2.408 8.07-5.352 15.723-8.758 23.425-1.004 2.414-1.79 4.59-2.305 7.137 3.261-1.553 6.249-3.167 9.25-5.187C896 551 896 551 898 551l1-4h2v-3h2l.356-1.796c.84-2.878 2.54-4.911 4.307-7.295 2.164-3.09 3.806-6.403 5.462-9.784l1.047-2.111C916.56 518.113 918.5 513.25 920 508h2l1-9h2l2-10c3.42 13.678-10.173 35.396-16.895 46.998C891.803 566.427 865.94 587.988 834 603l-1.927.931c-4.723 2.186-4.723 2.186-8.073 1.069l1.617-1.215A414 414 0 0 0 833 598l2.473-1.977c10.86-9.19 18.434-20.782 23.527-34.023l1.25-3.187c5.408-15.925 4.53-34.354-2.865-49.418-3.908-7.574-8.693-14.04-14.385-20.395l-2.184-2.512c-3.991-4.532-8.15-8.865-12.441-13.113-4.34-4.303-8.466-8.679-12.375-13.375l-1.887-2.223c-15.19-18.353-25.949-38.23-24.332-62.58 1.56-15.671 11.619-27.791 21.235-39.521 3.591-4.388 6.967-8.923 10.34-13.48C823 340 823 340 824 339"/><path fill="#f3ebe6" d="M645 651c26 0 26 0 31.25 4.438.91 1.56 1.815 3.124 2.658 4.721 2.254 3.8 5.3 7.048 8.154 10.404q1.825 2.205 3.641 4.417l1.729 2.103a898 898 0 0 1 7.736 9.624c4.69 5.871 9.482 11.661 14.27 17.453l3.687 4.465 1.835 2.22c3.7 4.49 7.326 9.022 10.806 13.686 1.188 1.611 1.188 1.611 3.234 2.469v-76h27v123c-25 0-25 0-31.375-5.625-1.44-1.917-1.44-1.917-2.367-3.602-2.272-3.877-4.936-7.283-7.758-10.773q-1.377-1.764-2.75-3.531c-2.668-3.395-5.442-6.69-8.25-9.969-4.207-4.916-8.249-9.936-12.221-15.043-4.175-5.358-8.459-10.622-12.777-15.864-2.537-3.099-4.97-6.215-7.26-9.503-1.892-3.107-1.892-3.107-4.242-4.09v78h-27zM587 663l2 3-2.23 2.633-2.957 3.492-1.463 1.727A1622 1622 0 0 0 573 685l-2.344-1.426c-14.747-8.815-28.702-11.482-45.77-9.148-8.714 2.265-16.638 7.9-21.636 15.383-4.292 7.524-5.61 14.23-5.687 22.816l-.031 2.386c.14 9.431 3.253 17.85 9.468 24.989 7.393 6.39 15.2 10.155 25 11l2.133.195c10.136.502 19.905-2.714 28.867-7.195l1-18h-31v-23h58l.563 27.625.248 8.694q.04 3.423.068 6.845l.14 3.571c.007 8.18.007 8.18-2.97 11.33-2.293 1.55-4.538 2.778-7.049 3.935l-3.187 1.793c-14.118 7-26.594 9.554-42.375 9.457l-3.827.023c-17.307-.036-33.848-5.673-46.892-17.457-12.885-13.617-19.36-30.223-19.024-48.828 1.364-17.85 8.632-34.15 21.938-46.207 27.166-23.156 70.052-20.144 98.367-.781M1048 650h93v25h-65v26h56v23h-56v26h68v24h-96zM894 651h109v24h-41v99h-27v-99h-41zM821 651h28v123h-28zM423 671v103h-27a3991 3991 0 0 1-.363-31.372c-.036-4.857-.086-9.712-.165-14.568a1136 1136 0 0 1-.136-14.064 385 385 0 0 0-.076-5.36c-.285-13.995-.285-13.995 2.258-18.067 2.519-2.23 4.836-3.327 7.966-4.499 4.084-1.737 6.737-5.021 9.766-8.195q1.88-1.944 3.766-3.883l1.665-1.739C422 671 422 671 423 671"/><path fill="#fc570e" d="M1004.25 814.688c4.8 3.86 7.95 8.355 9.563 14.312l.187 3 .313 3.688c-.137 7.12-2.682 14.044-7.563 19.25A76 76 0 0 1 1003 858l-1.633 1.313c-6.652 4.295-15.785 3.583-23.367 2.687-3.222-.808-5.422-1.928-8-4l-1.883-1.437c-5.712-4.972-8.268-11.297-9.46-18.696-.337-6.924 1.69-14.213 5.968-19.68 10.742-11.33 27.04-12.165 39.625-3.5"/><path fill="#fb550d" d="M800 810c29.8 0 29.8 0 40.563 6.563 5.02 5.02 7.727 10.879 7.937 18-.458 8.345-2.707 14.565-8.46 20.71C828.69 864.883 814.153 862 800 862z"/><path fill="#fc5710" d="M699 810h11l.012 3.118c.022 3.836.077 7.67.14 11.506q.035 2.484.044 4.97c.009 2.389.05 4.775.097 7.164l-.012 2.226c.162 5.757 1.753 8.133 5.719 12.016 4.309 1.746 8.14 1.313 12.438-.25 2.771-1.659 2.771-1.659 4.562-4.75.24-2.752.373-5.412.414-8.168l.059-2.408c.06-2.537.106-5.074.152-7.611l.117-5.163q.142-6.324.258-12.65h11q.149 7.684.22 15.369.03 2.61.082 5.22c.049 2.512.071 5.023.089 7.536l.062 2.327c.002 5.637-1.379 9.81-4.453 14.548-2.07 2.059-2.07 2.059-4.125 3.438l-2.07 1.433c-5.844 3.656-14.09 2.873-20.805 2.129-5.067-1.539-8.042-3.87-11.437-7.875-3.004-6.007-3.855-11.596-3.758-18.246l.008-2.257c.011-2.353.036-4.706.062-7.06q.016-2.409.027-4.818.035-5.873.098-11.744"/><path fill="#fc570f" d="m557 813 3 3-5 7c-5.75-1.875-5.75-1.875-8-3-1.997-.122-4-.175-6-.187l-3.25-.043c-2.895-.056-2.895-.056-4.75 2.23-.312 2.53-.312 2.53 1 5 3.489 1.65 6.839 2.677 10.543 3.707 6.784 1.92 12.575 4.026 16.457 10.293.863 5.146.597 9.686-1.562 14.438-3.922 4.122-7.891 6.713-13.594 7.058q-2.173.002-4.344-.058l-2.184.021c-7.664-.09-13.15-3.098-19.316-7.459 1.372-2.954 2.989-5.44 5-8l1.742.895c7.106 3.479 13.396 5.082 21.258 3.105l2-2c-.32-2.603-.32-2.603-1-5l-1.833-.547c-2.77-.84-5.53-1.709-8.292-2.578l-2.883-.86c-6.151-1.964-10.02-3.837-13.992-9.015-1.242-4.605-.374-8.938 1.188-13.375C531.284 805.9 545.528 807.292 557 813"/><path fill="#fc5909" d="M606 810h45v10h-17v42h-11v-42h-17z"/><path fill="#fdf9f8" d="M986.25 818.688c5.896.49 10.064 2.583 14.188 6.812 2.847 4.556 3.247 9.174 2.562 14.5-1.393 4.395-3.27 7.338-6.687 10.438-5.585 2.634-10.684 3.373-16.625 1.437-4.742-2.083-6.89-5.04-8.938-9.75-1.56-6.5-1.01-11.257 2.25-17.125 4.05-4.402 7.466-5.756 13.25-6.312M811 820c16 0 16 0 20.313 2.188 4.292 4.491 5.854 7 6.125 13.25-.147 4.966-1.032 7.787-4.438 11.562-7.004 6.479-11.738 5-22 5z"/><path fill="#fb3607" d="M927 489c3.42 13.678-10.173 35.396-16.895 46.998C891.803 566.427 865.94 587.988 834 603l-1.927.931c-4.723 2.186-4.723 2.186-8.073 1.069l1.617-1.215A414 414 0 0 0 833 598l2.473-1.977C846.497 586.694 853.524 575.265 859 562q.936-2.157 1.875-4.312L862 555l2 1c-.517 4.443-1.6 7.257-4 11l-.937 2.375c-1.378 3.404-3.16 6.496-5.063 9.625l-1.277 2.133C848.89 587.227 844.233 592.08 839 597c3.403-1.059 6.014-2.009 9-4h3v-3c1.398-1.219 1.398-1.219 3.375-2.5 5.737-4.064 12.442-10.134 15.625-16.5h2l.75-1.625c2.77-5.262 4.531-8.425 10.25-10.375 2.72-1.581 5.354-3.297 8-5 4.759-3 4.759-3 7-3l1-4h2v-3h2l.356-1.796c.84-2.878 2.54-4.911 4.307-7.295 2.164-3.09 3.806-6.403 5.462-9.784l1.047-2.111C916.56 518.113 918.5 513.25 920 508h2l1-9h2z"/><path fill="#fe5b08" d="M1049 832h92v7h-92z"/><path fill="#fd720a" d="M396 651h36c-5.555 6.666-5.555 6.666-8.668 9.227-6.156 5.252-11.7 11.133-17.35 16.918l-2.595 2.628-2.337 2.389C399 684 399 684 396 685z"/><path fill="#f3ebe6" d="M1048 650h93v24h-66v-1h65v-21h-90v121h92v-22h1v23h-95z"/><path fill="#fe5b09" d="M396 832h90v7h-90z"/><path fill="#fd5909" d="M900 810h11v52h-11z"/><path fill="#fc582a" d="M606 810h45v10h-17v42h-11v-42h-17zm1 1v8l16 1 1 40h8l1-41h15v-8z"/><path fill="#f62112" d="m862 555 2 1c-.517 4.443-1.6 7.257-4 11l-.937 2.375c-1.378 3.404-3.16 6.496-5.063 9.625l-1.277 2.133C848.89 587.227 844.233 592.08 839 597c3.403-1.059 6.014-2.009 9-4h3v-3c1.68-1.535 1.68-1.535 3.875-3.062 2.235-1.575 4.188-3 6.125-4.938 3.125.375 3.125.375 6 1-8.587 9.24-21.72 14.699-33 20l-1.927.931c-4.723 2.186-4.723 2.186-8.073 1.069l1.617-1.215A414 414 0 0 0 833 598l2.473-1.977C846.497 586.694 853.524 575.265 859 562q.936-2.157 1.875-4.312z"/><path fill="#fd5a2c" d="M909 810h2v52h-11v-51h1v49h8z"/><path fill="#f92815" d="M626 497c1.581 3.111 3.055 6.261 4.5 9.438l1.281 2.808L633 512l1.156 2.598C635 517 635 517 635 521h2l1.188 2.938C643.38 535.998 651.257 546.486 659 557l-1 2c-6.55-7.565-12.049-15.298-17-24l-1.11-1.93c-4.702-8.252-8.7-16.6-12.015-25.508l-.932-2.494c-.714-2-1.337-4.032-1.943-6.068z"/><path fill="#fc693a" d="M606 810h45v10h-17v-1h14v-8l-40 1-1 7h16v1h-17z"/><path fill="#fb7c11" d="M699 290c0 3 0 3-1.174 4.529l-1.668 1.638-1.883 1.872-2.064 2.008-2.11 2.089c-2.235 2.212-4.48 4.413-6.726 6.614a4146 4146 0 0 0-6.662 6.571 1190 1190 0 0 1-4.154 4.084c-4.09 4.027-7.881 8.188-11.559 12.595l-2-1a369 369 0 0 1 22.813-25l2.385-2.388A266 266 0 0 1 699 290"/><path fill="#fcb327" d="M851 255c2.603 3.16 4.14 6.343 5.688 10.125l1.324 3.195C859 271 859 271 859 273c-3-1-3-1-5-4-2.721 2.721-2.607 4.848-3.125 8.625l-.508 3.602L850 284h-2l.434-3.84c.581-5.237 1.11-10.479 1.629-15.723l.275-2.767z"/><path fill="#fa3d1f" d="M849 495c3.284 1.056 4.572 2.617 6.25 5.5C857 504 857 504 857 506h2c5.42 13.197 7.521 22.733 6 37h-1l-.113-3.078c-.773-17.545-5.845-30.03-14.887-44.922"/><path fill="#fc5d16" d="M927 489c3.034 12.135-7.903 29.202-13 40h-2c.478-3.943 1.906-6.648 3.945-10.02 1.85-3.475 2.93-7.22 4.055-10.98h2l1-9h2z"/><path fill="#ef2015" d="M659 559c1.938.313 1.938.313 4 1l1 3c2.592 2.815 5.336 5.296 8.313 7.688L675 573v2h2l5 5 3.313 2.188L688 584v2h3l1 3c-4.636-1.479-7.902-4.152-11.5-7.312l-1.825-1.586c-4.46-3.923-8.766-7.988-12.987-12.164l-1.688-1.66c-2.385-2.405-3.914-4.02-5-7.278"/><path fill="#fa4216" d="m911 529 2 1c-5.026 9.257-10.458 17.732-17 26l-1-4 3-1c.733-2.015.733-2.015 1-4h2v-3h2l.348-1.781c.696-2.37 1.596-3.77 3.09-5.719 1.798-2.418 3.342-4.727 4.562-7.5"/><path fill="#fd9a03" d="M783 276c0 5.166-3.647 8.288-7 12-4.86 4.815-9.922 9.418-15 14l-2-1c8.639-8.811 8.639-8.811 12.438-11.875 2.717-2.047 2.717-2.047 4.562-5.125h2l.25-1.75c.955-2.866 2.535-4.25 4.75-6.25"/><path fill="#fdb40f" d="M759 125c4.071 2.036 6.891 3.674 10 7 .378 3.871-.781 7.344-2 11z"/><path fill="#fc391a" d="M777 490c4.147 1.66 7.067 4.66 10.25 7.688l3.465 3.246 1.695 1.589c3.127 2.904 6.351 5.698 9.59 8.477l-1 2-2.344-2.16c-9.576-9.142-9.576-9.142-19.875-17.402-.588-.475-1.175-.95-1.781-1.438z"/><path fill="#f73626" d="m862 555 2 1c-.517 4.443-1.6 7.257-4 11l-.937 2.688c-1.286 2.797-2.33 3.103-5.063 4.312a4776 4776 0 0 1 2.875-7.25l.816-2.066c1.314-3.3 2.643-6.546 4.309-9.684"/><path fill="#fb4617" d="m736 368 3 1-1.68 3.508-2.195 4.617-1.105 2.305c-1.958 4.129-3.69 8.185-5.02 12.57h-1v-8l3-1v-5h2z"/><path fill="#e82219" d="M698 593c4.145.821 7.284 2.801 10.879 4.941 2.173 1.282 2.173 1.282 5.121 1.059v2l1.75.313c2.57.785 4.187 1.992 6.25 3.687-4.872-.63-8.803-2.678-13.125-4.875l-2.168-1.066-2.09-1.051-1.887-.949c-1.873-1.146-3.242-2.453-4.73-4.059"/><path fill="#fea60c" d="M851 255c3.122 4.163 3.91 5.907 4 11l-4 4z"/><path fill="#e71a14" d="M723 605q2.188.464 4.375.938l2.46.527C732 607 732 607 734 608l1-2v2l2.313.375C740 609 740 609 743 611c-7.361-.313-13.309-1.94-20-5z"/><path fill="#f32a0a" d="M864.188 582.313 867 583c-3.222 3.867-6.15 4.88-11 6 3.216-7.175 3.216-7.175 8.188-6.687"/><path fill="#fd6917" d="M931 466h1c.415 8.017-1.14 15.22-3 23h-1v-10h2z"/><path fill="#fc551f" d="m991 809 2 2-2.922.148-3.828.227-3.797.21c-3.063.368-4.873.812-7.453 2.415l-2-2c5.903-2.344 11.6-4.042 18-3"/><path fill="#fd3c20" d="M816 532c3.656 3.656 4.793 9.364 5.191 14.438-.003 1.855-.088 3.71-.191 5.562h-1l-.312-3.062c-.532-3.967-.532-3.967-2.25-7.5-1.456-3.481-1.71-5.718-1.438-9.438"/><path fill="#fb9018" d="M723 269c0 3 0 3-2.187 5.48L718 277.187l-2.812 2.731L713 282l-3-1z"/><path fill="#fc9c13" d="M742 251c0 4.072-1.554 5.141-4.25 8.125l-2.39 2.695c-2.27 2.097-3.352 2.835-6.36 3.18a186 186 0 0 1 13-14"/><path fill="#fc4311" d="M829 472c3.376 1.125 4.284 2.16 6.563 4.813l1.816 2.082c1.517 1.97 2.6 3.845 3.621 6.105-4.174-3.5-8.315-6.98-12-11z"/><path fill="#fdba23" d="M782 145a367 367 0 0 1 3.438 2.813l1.933 1.582C789 151 789 151 790 154c-2.875-.562-2.875-.562-6-2-1.375-3.625-1.375-3.625-2-7"/><path fill="#fb3f27" d="M790 502c3.239 1.444 5.62 3.258 8.25 5.625l2.14 1.914L802 511l-1 2q-2.754-2.465-5.5-4.937l-1.59-1.42A211 211 0 0 1 790 503z"/><path fill="#fa7313" d="M824 339h2c-1.186 3.375-2.276 5.647-5 8l-3-1a418 418 0 0 1 2.875-3.5l1.617-1.969z"/><path fill="#fcb527" d="M759 125c3.366 1.443 5.51 3.333 8 6l-2 2-3-1c-1.687-3.562-1.687-3.562-3-7"/><path fill="#fd431b" d="M755 468c7.483 6.15 7.483 6.15 10 10-3 0-3 0-4.824-1.68l-1.864-2.195-1.886-2.18C755 470 755 470 755 468"/><path fill="#f92b26" d="m831 600 3 3c-6.625 3.125-6.625 3.125-10 2z"/><path fill="#fc5f1e" d="M535 828c6.75 1.625 6.75 1.625 9 5l-8-1z"/><path fill="#fc370e" d="M767 480q1.723 1.432 3.438 2.875l1.933 1.617C774 486 774 486 775 488c-3.175-.34-4.023-1.025-6.25-3.437C767 482 767 482 767 480"/><path fill="#f82510" d="m862 555 2 1c-.375 2.938-.375 2.938-1 6l-2 1q-.062-3.5 0-7z"/></svg>