<svg xmlns="http://www.w3.org/2000/svg" viewBox="392 648 776 195"><path fill="#f3ebe6" d="M645 651c26 0 26 0 31.25 4.438.91 1.56 1.815 3.124 2.658 4.721 2.254 3.8 5.3 7.048 8.154 10.404q1.825 2.205 3.641 4.417l1.729 2.103a898 898 0 0 1 7.736 9.624c4.69 5.871 9.482 11.661 14.27 17.453l3.687 4.465 1.835 2.22c3.7 4.49 7.326 9.022 10.806 13.686 1.188 1.611 1.188 1.611 3.234 2.469v-76h27v123c-25 0-25 0-31.375-5.625-1.44-1.917-1.44-1.917-2.367-3.602-2.272-3.877-4.936-7.283-7.758-10.773q-1.377-1.764-2.75-3.531c-2.668-3.395-5.442-6.69-8.25-9.969-4.207-4.916-8.249-9.936-12.221-15.043-4.175-5.358-8.459-10.622-12.777-15.864-2.537-3.099-4.97-6.215-7.26-9.503-1.892-3.107-1.892-3.107-4.242-4.09v78h-27zM587 663l2 3-2.23 2.633-2.957 3.492-1.463 1.727A1622 1622 0 0 0 573 685l-2.344-1.426c-14.747-8.815-28.702-11.482-45.77-9.148-8.714 2.265-16.638 7.9-21.636 15.383-4.292 7.524-5.61 14.23-5.687 22.816l-.031 2.386c.14 9.431 3.253 17.85 9.468 24.989 7.393 6.39 15.2 10.155 25 11l2.133.195c10.136.502 19.905-2.714 28.867-7.195l1-18h-31v-23h58l.563 27.625.248 8.694q.04 3.423.068 6.845l.14 3.571c.007 8.18.007 8.18-2.97 11.33-2.293 1.55-4.538 2.778-7.049 3.935l-3.187 1.793c-14.118 7-26.594 9.554-42.375 9.457l-3.827.023c-17.307-.036-33.848-5.673-46.892-17.457-12.885-13.617-19.36-30.223-19.024-48.828 1.364-17.85 8.632-34.15 21.938-46.207 27.166-23.156 70.052-20.144 98.367-.781M1048 650h93v25h-65v26h56v23h-56v26h68v24h-96zM894 651h109v24h-41v99h-27v-99h-41zM821 651h28v123h-28zM423 671v103h-27a3991 3991 0 0 1-.363-31.372c-.036-4.857-.086-9.712-.165-14.568a1136 1136 0 0 1-.136-14.064 385 385 0 0 0-.076-5.36c-.285-13.995-.285-13.995 2.258-18.067 2.519-2.23 4.836-3.327 7.966-4.499 4.084-1.737 6.737-5.021 9.766-8.195q1.88-1.944 3.766-3.883l1.665-1.739C422 671 422 671 423 671"/><path fill="#fc570e" d="M1004.25 814.688c4.8 3.86 7.95 8.355 9.563 14.312l.187 3 .313 3.688c-.137 7.12-2.682 14.044-7.563 19.25A76 76 0 0 1 1003 858l-1.633 1.313c-6.652 4.295-15.785 3.583-23.367 2.687-3.222-.808-5.422-1.928-8-4l-1.883-1.437c-5.712-4.972-8.268-11.297-9.46-18.696-.337-6.924 1.69-14.213 5.968-19.68 10.742-11.33 27.04-12.165 39.625-3.5"/><path fill="#fb550d" d="M800 810c29.8 0 29.8 0 40.563 6.563 5.02 5.02 7.727 10.879 7.937 18-.458 8.345-2.707 14.565-8.46 20.71C828.69 864.883 814.153 862 800 862z"/><path fill="#fc5710" d="M699 810h11l.012 3.118c.022 3.836.077 7.67.14 11.506q.035 2.484.044 4.97c.009 2.389.05 4.775.097 7.164l-.012 2.226c.162 5.757 1.753 8.133 5.719 12.016 4.309 1.746 8.14 1.313 12.438-.25 2.771-1.659 2.771-1.659 4.562-4.75.24-2.752.373-5.412.414-8.168l.059-2.408c.06-2.537.106-5.074.152-7.611l.117-5.163q.142-6.324.258-12.65h11q.149 7.684.22 15.369.03 2.61.082 5.22c.049 2.512.071 5.023.089 7.536l.062 2.327c.002 5.637-1.379 9.81-4.453 14.548-2.07 2.059-2.07 2.059-4.125 3.438l-2.07 1.433c-5.844 3.656-14.09 2.873-20.805 2.129-5.067-1.539-8.042-3.87-11.437-7.875-3.004-6.007-3.855-11.596-3.758-18.246l.008-2.257c.011-2.353.036-4.706.062-7.06q.016-2.409.027-4.818.035-5.873.098-11.744"/><path fill="#fc570f" d="m557 813 3 3-5 7c-5.75-1.875-5.75-1.875-8-3-1.997-.122-4-.175-6-.187l-3.25-.043c-2.895-.056-2.895-.056-4.75 2.23-.312 2.53-.312 2.53 1 5 3.489 1.65 6.839 2.677 10.543 3.707 6.784 1.92 12.575 4.026 16.457 10.293.863 5.146.597 9.686-1.562 14.438-3.922 4.122-7.891 6.713-13.594 7.058q-2.173.002-4.344-.058l-2.184.021c-7.664-.09-13.15-3.098-19.316-7.459 1.372-2.954 2.989-5.44 5-8l1.742.895c7.106 3.479 13.396 5.082 21.258 3.105l2-2c-.32-2.603-.32-2.603-1-5l-1.833-.547c-2.77-.84-5.53-1.709-8.292-2.578l-2.883-.86c-6.151-1.964-10.02-3.837-13.992-9.015-1.242-4.605-.374-8.938 1.188-13.375C531.284 805.9 545.528 807.292 557 813"/><path fill="#fc5909" d="M606 810h45v10h-17v42h-11v-42h-17z"/><path fill="#fdf9f8" d="M986.25 818.688c5.896.49 10.064 2.583 14.188 6.812 2.847 4.556 3.247 9.174 2.562 14.5-1.393 4.395-3.27 7.338-6.687 10.438-5.585 2.634-10.684 3.373-16.625 1.437-4.742-2.083-6.89-5.04-8.938-9.75-1.56-6.5-1.01-11.257 2.25-17.125 4.05-4.402 7.466-5.756 13.25-6.312M811 820c16 0 16 0 20.313 2.188 4.292 4.491 5.854 7 6.125 13.25-.147 4.966-1.032 7.787-4.438 11.562-7.004 6.479-11.738 5-22 5z"/><path fill="#fe5b08" d="M1049 832h92v7h-92z"/><path fill="#fd720a" d="M396 651h36c-5.555 6.666-5.555 6.666-8.668 9.227-6.156 5.252-11.7 11.133-17.35 16.918l-2.595 2.628-2.337 2.389C399 684 399 684 396 685z"/><path fill="#f3ebe6" d="M1048 650h93v24h-66v-1h65v-21h-90v121h92v-22h1v23h-95z"/><path fill="#fe5b09" d="M396 832h90v7h-90z"/><path fill="#fd5909" d="M900 810h11v52h-11z"/><path fill="#fc582a" d="M606 810h45v10h-17v42h-11v-42h-17zm1 1v8l16 1 1 40h8l1-41h15v-8z"/><path fill="#fd5a2c" d="M909 810h2v52h-11v-51h1v49h8z"/><path fill="#fc693a" d="M606 810h45v10h-17v-1h14v-8l-40 1-1 7h16v1h-17z"/><path fill="#fc551f" d="m991 809 2 2-2.922.148-3.828.227-3.797.21c-3.063.368-4.873.812-7.453 2.415l-2-2c5.903-2.344 11.6-4.042 18-3"/><path fill="#fc5f1e" d="M535 828c6.75 1.625 6.75 1.625 9 5l-8-1z"/></svg>